<?xml version="1.0" encoding="UTF-8"?><svg id="Layer_2" xmlns="http://www.w3.org/2000/svg" viewBox="0 0 26 22.71"><g id="Layer_1-2"><path d="M1.62,22.71C.88,22.71,0,22.14,0,20.99c0-1.07.88-1.64,1.62-1.64h22.77c.74,0,1.62.57,1.62,1.64,0,1.14-.88,1.72-1.62,1.72H1.62Z" fill="#fefefe" stroke-width="0"/><path d="M1.62,13.03c-.74,0-1.62-.57-1.62-1.72,0-1.07.88-1.64,1.62-1.64h22.77c.74,0,1.62.57,1.62,1.64,0,1.14-.88,1.72-1.62,1.72H1.62Z" fill="#fefefe" stroke-width="0"/><path d="M1.62,3.36c-.74,0-1.62-.57-1.62-1.72C0,.57.88,0,1.62,0h22.77c.74,0,1.62.57,1.62,1.64,0,1.14-.88,1.72-1.62,1.72H1.62Z" fill="#fefefe" stroke-width="0"/></g></svg>