<?xml version="1.0" encoding="UTF-8"?><svg id="Layer_2" xmlns="http://www.w3.org/2000/svg" viewBox="0 0 27.98 23.48"><g id="Layer_1-2"><g id="Layer_1-2"><path d="M25.74,0H2.24C1,0,0,1,0,2.24v19c0,1.24,1,2.24,2.24,2.24h23.5c1.24,0,2.24-1,2.24-2.24V2.24c0-1.24-1-2.24-2.24-2.24ZM2.28,2.28h23.41v3.06c-.08.03-.16.08-.23.13l-9.84,7.28c-.91.65-2.12.65-3.03,0L2.5,5.47c-.07-.05-.14-.09-.21-.12v-3.07ZM25.69,21.19H2.28v-13.06l8.97,6.47c.85.61,1.85.92,2.85.92s2.01-.31,2.87-.93l8.72-6.44v13.04Z" fill="#fefefe" stroke-width="0"/></g></g></svg>