<?xml version="1.0" encoding="UTF-8"?><svg id="Layer_2" xmlns="http://www.w3.org/2000/svg" viewBox="0 0 23.48 23.48"><g id="Layer_1-2"><g id="b"><g id="c"><path d="M11.74,2.12c3.13,0,3.51.01,4.74.07,1.14.05,1.77.24,2.18.4.55.21.94.47,1.35.88s.67.8.88,1.35c.16.41.35,1.04.4,2.18.06,1.24.07,1.61.07,4.74s-.01,3.51-.07,4.74c-.05,1.14-.24,1.77-.4,2.18-.21.55-.47.94-.88,1.35-.41.41-.8.67-1.35.88-.41.16-1.04.35-2.18.4-1.24.06-1.61.07-4.74.07s-3.51-.01-4.74-.07c-1.14-.05-1.77-.24-2.18-.4-.55-.21-.94-.47-1.35-.88-.41-.41-.67-.8-.88-1.35-.16-.41-.35-1.04-.4-2.18-.06-1.24-.07-1.61-.07-4.74s.01-3.51.07-4.74c.05-1.14.24-1.77.4-2.18.21-.55.47-.94.88-1.35s.8-.67,1.35-.88c.41-.16,1.04-.35,2.18-.4,1.24-.06,1.61-.07,4.74-.07M11.74,0c-3.19,0-3.59.01-4.84.07-1.25.06-2.1.26-2.85.55-.77.3-1.43.7-2.08,1.35-.65.65-1.05,1.31-1.35,2.08-.29.75-.49,1.6-.55,2.85-.06,1.25-.07,1.65-.07,4.84s.01,3.59.07,4.84c.06,1.25.26,2.1.55,2.85.3.77.7,1.43,1.35,2.08.65.65,1.31,1.05,2.08,1.35.75.29,1.6.49,2.85.55,1.25.06,1.65.07,4.84.07s3.59-.01,4.84-.07c1.25-.06,2.1-.26,2.85-.55.77-.3,1.43-.7,2.08-1.35.65-.65,1.05-1.31,1.35-2.08.29-.75.49-1.6.55-2.85.06-1.25.07-1.65.07-4.84s-.01-3.59-.07-4.84c-.06-1.25-.26-2.1-.55-2.85-.3-.77-.7-1.43-1.35-2.08-.65-.65-1.31-1.05-2.08-1.35-.75-.29-1.6-.49-2.85-.55C15.33.01,14.93,0,11.74,0h0Z" stroke-width="0"/><path d="M11.74,5.71c-3.33,0-6.03,2.7-6.03,6.03s2.7,6.03,6.03,6.03,6.03-2.7,6.03-6.03-2.7-6.03-6.03-6.03ZM11.74,15.65c-2.16,0-3.91-1.75-3.91-3.91s1.75-3.91,3.91-3.91,3.91,1.75,3.91,3.91-1.75,3.91-3.91,3.91Z" stroke-width="0"/><circle cx="18.01" cy="5.47" r="1.41" stroke-width="0"/></g></g></g></svg>