<?xml version="1.0" encoding="UTF-8"?><svg xmlns="http://www.w3.org/2000/svg" viewBox="0 0 503.841 503.841"><defs><style>.d{fill:#faf4ee;}</style></defs><g id="a"/><g id="b"><g id="c"><g><path class="d" d="M251.9205,45.3911c67.2658,0,75.2332,.2565,101.7973,1.4685,24.5618,1.1208,37.9012,5.2245,46.7782,8.6744,11.7588,4.5698,20.1509,10.0295,28.966,18.8446,8.8155,8.8155,14.2751,17.2076,18.8449,28.9664,3.4499,8.877,7.5536,22.2164,8.6744,46.7779,1.212,26.5645,1.4685,34.5319,1.4685,101.7977s-.2565,75.2332-1.4685,101.7973c-1.1208,24.5618-5.2245,37.9012-8.6744,46.7782-4.5698,11.7588-10.0294,20.1509-18.8446,28.966-8.8155,8.8155-17.2076,14.2751-28.9664,18.8449-8.8771,3.4499-22.2164,7.5536-46.7782,8.6744-26.5603,1.212-34.527,1.4685-101.7973,1.4685s-75.237-.2565-101.7973-1.4685c-24.5618-1.1208-37.9012-5.2245-46.7782-8.6744-11.7589-4.5698-20.1509-10.0294-28.966-18.8446-8.8153-8.8153-14.2751-17.2076-18.8449-28.9664-3.4499-8.8771-7.5536-22.2164-8.6744-46.7779-1.212-26.5645-1.4685-34.5319-1.4685-101.7977s.2565-75.2332,1.4685-101.7973c1.1208-24.5618,5.2245-37.9012,8.6744-46.7782,4.5698-11.7589,10.0295-20.1509,18.8446-28.966s17.2076-14.2751,28.9664-18.8449c8.877-3.4499,22.2164-7.5536,46.7779-8.6744,26.5645-1.212,34.5319-1.4685,101.7977-1.4685m0-45.3911c-68.4176,0-76.9965,.2898-103.8664,1.5157-26.8145,1.2236-45.1267,5.4822-61.1514,11.7098-16.5658,6.4379-30.615,15.0517-44.6203,29.0568-14.0051,14.0053-22.6189,28.0546-29.0568,44.6203C6.9979,102.9274,2.7393,121.2396,1.5157,148.0541c-1.2259,26.8699-1.5157,35.4486-1.5157,103.8664s.2898,76.9965,1.5157,103.8664c1.2236,26.8145,5.4822,45.1267,11.7098,61.1514,6.4379,16.5656,15.0517,30.615,29.0568,44.6203,14.0053,14.0052,28.0546,22.619,44.6203,29.0568,16.0247,6.2277,34.3369,10.4863,61.1514,11.7098,26.8699,1.2261,35.4488,1.5157,103.8664,1.5157s76.9965-.2896,103.8664-1.5157c26.8145-1.2235,45.1267-5.4821,61.1514-11.7098,16.5658-6.4379,30.615-15.0516,44.6203-29.0568,14.0052-14.0053,22.619-28.0546,29.0568-44.6203,6.2277-16.0247,10.4863-34.3369,11.7098-61.1514,1.2259-26.8699,1.5157-35.4488,1.5157-103.8664s-.2898-76.9965-1.5157-103.8664c-1.2235-26.8145-5.4821-45.1267-11.7098-61.1514-6.4379-16.5658-15.0516-30.615-29.0568-44.6203-14.0053-14.0051-28.0546-22.6189-44.6203-29.0568-16.0247-6.2277-34.3369-10.4863-61.1514-11.7098-26.8699-1.2259-35.4488-1.5157-103.8664-1.5157h0Z"/><path class="d" d="M251.9205,122.5559c-71.4461,0-129.3646,57.9185-129.3646,129.3646s57.9185,129.3645,129.3646,129.3645,129.3646-57.9185,129.3646-129.3645-57.9185-129.3646-129.3646-129.3646Zm0,213.338c-46.3773,0-83.9735-37.5962-83.9735-83.9735s37.5963-83.9735,83.9735-83.9735,83.9735,37.5962,83.9735,83.9735-37.5962,83.9735-83.9735,83.9735Z"/><circle class="d" cx="386.3963" cy="117.4447" r="30.2305"/></g></g></g></svg>