<?xml version="1.0" standalone="no"?>
<!DOCTYPE svg PUBLIC "-//W3C//DTD SVG 20010904//EN"
 "http://www.w3.org/TR/2001/REC-SVG-20010904/DTD/svg10.dtd">
<svg version="1.0" xmlns="http://www.w3.org/2000/svg"
 width="700.000000pt" height="700.000000pt" viewBox="0 0 700.000000 700.000000"
 preserveAspectRatio="xMidYMid meet">
<metadata>
Created by potrace 1.14, written by Peter Selinger 2001-2017
</metadata>
<g transform="translate(0.000000,700.000000) scale(0.100000,-0.100000)"
fill="#000000" stroke="none">
<path d="M3278 6995 c-1 -1 -41 -5 -88 -9 -47 -4 -101 -9 -120 -12 -139 -19
-252 -40 -360 -66 -69 -16 -135 -31 -147 -34 -40 -8 -264 -84 -367 -126 -877
-349 -1594 -1067 -1946 -1949 -66 -165 -142 -408 -165 -530 -3 -13 -12 -58
-20 -99 -8 -41 -17 -89 -19 -105 -3 -17 -7 -46 -11 -66 -21 -123 -30 -282 -30
-504 0 -194 7 -329 20 -406 2 -13 6 -46 9 -74 47 -408 239 -953 466 -1318 30
-48 60 -95 65 -105 24 -42 133 -191 208 -285 147 -182 310 -348 497 -504 102
-84 305 -233 320 -233 5 0 10 -4 10 -10 0 -5 4 -10 10 -10 5 0 40 -19 77 -43
352 -225 875 -411 1322 -473 25 -3 57 -8 71 -10 163 -25 682 -25 842 1 13 2
46 7 73 10 71 10 87 13 115 18 14 3 43 8 65 12 115 21 314 74 455 122 558 189
1087 540 1480 982 36 41 70 79 75 85 62 67 240 317 320 450 179 298 346 717
411 1031 16 75 54 300 60 350 4 33 9 76 11 95 8 70 10 517 3 595 -13 131 -21
202 -25 227 -3 13 -8 43 -11 68 -3 25 -9 61 -14 80 -5 19 -12 51 -15 70 -3 19
-19 87 -35 151 -163 647 -525 1249 -1031 1714 -492 452 -1151 771 -1799 870
-25 4 -54 9 -65 11 -10 2 -49 6 -85 10 -36 3 -78 8 -95 11 -33 5 -531 13 -537
8z m512 -299 c19 -2 58 -7 85 -10 127 -13 229 -32 391 -71 993 -241 1819 -956
2207 -1910 38 -94 112 -307 122 -355 2 -8 13 -55 25 -105 24 -99 26 -105 40
-185 17 -100 23 -144 37 -285 15 -153 8 -548 -12 -666 -2 -13 -6 -42 -10 -64
-27 -186 -77 -402 -126 -541 -11 -33 -22 -66 -24 -75 -8 -37 -100 -251 -159
-368 -87 -175 -198 -354 -222 -357 -189 -30 -574 -35 -705 -9 -13 3 -40 7 -60
10 -19 2 -62 11 -95 19 -289 71 -478 191 -602 380 -98 151 -178 389 -207 621
-4 28 -9 61 -11 75 -3 14 -7 106 -8 205 -8 445 105 842 341 1205 70 107 129
185 215 284 73 83 55 177 -41 218 -67 29 -265 93 -362 118 -95 25 -99 26 -166
36 -26 5 -50 9 -53 9 -12 3 -99 16 -145 21 -85 10 -407 12 -470 3 -33 -4 -85
-11 -115 -14 -30 -3 -62 -8 -70 -10 -8 -2 -27 -6 -43 -9 -15 -3 -35 -7 -45
-10 -9 -3 -28 -7 -42 -10 -50 -9 -204 -57 -289 -90 -316 -122 -601 -297 -1134
-694 -114 -85 -221 -164 -238 -176 -16 -11 -105 -76 -197 -142 -238 -173 -531
-365 -712 -467 -262 -148 -550 -300 -556 -294 -4 4 -24 161 -32 247 -14 162
-6 541 13 660 2 14 7 43 9 65 48 381 203 820 415 1180 347 587 901 1067 1536
1330 160 67 427 150 545 171 14 3 57 11 95 19 39 7 93 17 120 20 28 3 61 8 75
10 14 2 63 7 110 10 47 4 86 8 88 10 5 5 444 -3 482 -9z m365 -2100 c55 -4
120 -12 145 -16 24 -5 49 -6 55 -3 12 6 -45 -48 -96 -91 -540 -458 -937 -1018
-1139 -1606 -12 -36 -25 -72 -28 -80 -27 -75 -94 -350 -106 -435 -3 -22 -7
-49 -10 -60 -2 -11 -7 -49 -11 -85 -4 -36 -9 -74 -11 -85 -3 -11 -7 -103 -11
-205 -3 -102 -7 -186 -8 -188 -2 -2 -58 22 -126 53 -268 125 -520 208 -789
260 -27 6 -68 11 -145 21 -27 4 -52 8 -56 10 -11 6 -248 18 -369 18 -235 0
-435 -21 -700 -73 -52 -10 -95 -18 -96 -17 0 0 -19 39 -41 86 -47 97 -102 228
-137 327 -35 98 -78 244 -74 249 2 2 80 42 174 90 160 82 385 205 481 263 24
14 87 53 140 85 97 58 523 343 533 355 3 4 16 14 30 23 44 30 111 78 123 88
13 11 261 196 476 354 501 368 862 554 1217 625 137 27 156 30 264 37 52 3 96
7 97 8 4 3 126 -2 218 -8z m185 -655 c0 -3 -13 -46 -29 -96 -50 -152 -94 -347
-106 -462 -3 -32 -8 -68 -10 -80 -20 -120 -28 -588 -12 -728 20 -181 78 -388
149 -530 200 -400 587 -640 1118 -694 76 -8 346 -6 410 3 33 5 28 -2 -105
-133 -77 -75 -187 -174 -245 -220 -58 -45 -114 -90 -124 -98 -32 -26 -207
-138 -292 -187 l-81 -47 -94 34 c-52 19 -146 55 -209 81 -176 72 -221 92 -465
211 -104 51 -219 110 -255 130 -36 21 -85 49 -110 63 -164 92 -459 278 -546
344 -29 21 -54 46 -56 56 -11 53 3 389 22 517 5 33 12 80 15 105 4 25 13 77
21 115 9 39 17 79 19 89 46 217 191 571 327 801 150 252 375 523 581 702 42
36 77 47 77 24z m-2766 -2335 c22 -3 53 -7 70 -10 17 -2 54 -8 81 -12 28 -3
59 -8 70 -11 11 -2 31 -6 45 -9 172 -34 575 -162 735 -234 22 -10 83 -37 135
-60 52 -23 178 -85 280 -137 715 -369 904 -457 1287 -599 117 -44 213 -81 213
-84 0 -16 -407 -112 -531 -125 -35 -4 -73 -9 -83 -11 -126 -24 -632 -24 -761
0 -27 5 -90 14 -145 21 -35 5 -206 41 -275 59 -556 142 -1087 451 -1490 867
-139 143 -292 326 -281 336 2 2 41 6 87 10 46 3 86 7 88 9 5 5 431 -4 475 -10z"/>
</g>
</svg>
