<?xml version="1.0" encoding="UTF-8"?><svg id="Layer_2" xmlns="http://www.w3.org/2000/svg" viewBox="0 0 50 50"><g id="Layer_1-2"><path d="M50,25c0,5.07-1.51,9.79-4.11,13.74-.2.04-.41.07-.6.11,0,0,0,0-.02,0-.05,0-.1.02-.16.02-.38.06-.76.12-1.14.17-.02,0-.03,0-.05,0-.59.08-1.19.13-1.77.16-.03,0-.05,0-.05,0,0,0-1.74.11-3.25-.09-.16-.02-.33-.05-.33-.05-.08-.01-.18-.03-.32-.05-.15-.02-.29-.05-.43-.08-.04,0-.08-.01-.11-.02-.59-.12-1.17-.3-1.73-.53-3.42-1.36-4.33-4.99-4.52-8.74-.07-2.41.37-4.77,1.37-6.93.18-.4.37-.78.58-1.16.35-.63.7-1.16,1.08-1.7.15-.21.3-.41.31-.42.11-.14.27-.35.48-.59.04-.05.19-.23.31-.36.02-.03.05-.06.08-.09.42-.44.28-1.17-.27-1.43-.06-.03-.12-.05-.17-.08-.21-.09-.56-.22-.73-.28-.15-.06-.38-.15-.67-.23-.04,0-.08-.02-.11-.04-.35-.11-.71-.21-1.08-.31-10.25-2.61-15.7,3.59-24.33,9.51-2.08,1.38-4.66,2.91-7.8,4.4-.32-1.6-.49-3.25-.49-4.95C0,11.19,11.19,0,25,0s25,11.19,25,25Z" fill="#ff7bac" stroke-width="0"/><path d="M28.54,43.35c.89.47,2.32,1.22,4.3,2.03,1.58.65,3.03,1.14,4.27,1.5-.09.05-.17.09-.26.13-.06.04-.12.07-.18.1-.07.04-.14.08-.21.11-.06.03-.11.06-.16.08-.07.04-.12.07-.19.11-.04.02-.09.04-.12.06-.1.05-.19.1-.3.14-.08.04-.14.07-.22.11-.11.05-.23.11-.34.15-.07.03-.13.06-.19.09-.02,0-.03,0-.04,0-.09.04-.17.08-.26.11-.12.05-.24.1-.36.14-.11.05-.24.1-.35.14-.1.04-.18.07-.28.11-.04,0-.09.03-.12.05-.96-.27-2.93-.83-4.86-1.63-.96-.39-1.94-.86-1.94-.86-.26-.12-.41-.2-1.79-.9-1.4-.71-2.11-1.07-2.53-1.29-.71-.37-.82-.44-1.5-.79-.63-.32-1.05-.53-1.59-.79-.96-.46-1.71-.76-1.89-.84-1.11-.45-2.03-.75-2.63-.94-.96-.31-1.89-.59-3.17-.82-.38-.07-1.2-.19-2.26-.26-.31-.02-1.44-.08-2.95.03-.69.05-1.26.11-1.69.18-.09-.12-.18-.25-.27-.37-.07-.1-.13-.2-.2-.31-.02-.02-.04-.05-.05-.07-.07-.1-.12-.19-.19-.29,0-.02-.03-.05-.05-.07-.15-.24-.3-.48-.44-.72l-.2-.34s0-.02-.02-.04c-.08-.12-.14-.25-.21-.37-.08-.13-.14-.26-.21-.39,4.28-1.14,8.84-1.19,13.11.11,1.51.48,2.93,1.09,4.32,1.77v-.29c0-.09,0-.18,0-.29,0-.1,0-.21,0-.32v-.24c0-.11,0-.25,0-.38,0-.12,0-.25.02-.36,0-.11,0-.22.02-.32,0-.11.02-.29.04-.52.02-.2.04-.37.06-.51,0,0,.07-.66.18-1.31l.04-.25c.02-.11.04-.22.06-.32,1.06-5.59,3.78-9.51,4.71-10.77.94-1.28,2.43-3.05,4.61-4.83-2.59-.31-4.58,0-5.9.32-3.93.96-7.04,3.42-9.96,5.57-.15.11-.31.23-.47.34-.16.12-.32.25-.49.37,0,0-.02,0-.02,0-.83.63-1.79,1.34-3.08,2.23-.26.17-.53.36-.82.55-2.66,1.78-5.41,3.31-8.35,4.68-.02-.09-.05-.17-.07-.26-.03-.07-.05-.14-.07-.22-.12-.48-.24-.96-.33-1.46,3.14-1.48,5.72-3.02,7.79-4.39,8.63-5.92,14.09-12.12,24.33-9.51.37.1.74.19,1.08.31.04,0,.09.03.11.04.3.08.52.17.67.23.17.06.52.19.73.28.06.02.11.05.17.08.55.26.69.98.28,1.43-.03.03-.06.06-.09.09-.11.13-.27.32-.31.36-.21.25-.37.45-.48.59,0,.02-.16.21-.32.42-.38.54-.74,1.07-1.08,1.7-.21.37-.4.75-.58,1.16-1,2.16-1.44,4.52-1.37,6.93.18,3.74,1.09,7.38,4.51,8.74.55.23,1.14.41,1.73.53.04,0,.08,0,.11.02.14.03.29.06.43.08.13.03.24.04.32.06,0,0,.17.02.32.04,1.51.2,3.26.1,3.26.1,0,0,.02,0,.05,0,.58-.03,1.18-.09,1.78-.16h.05c.38-.05.75-.11,1.14-.16.05,0,.11-.02.15-.03h.02c.19-.04.4-.07.59-.11-.07.11-.13.21-.21.32-.06.09-.11.17-.18.26-.03.06-.07.11-.11.15-.05.08-.11.14-.16.22-.05.08-.11.15-.16.23-.06.08-.11.14-.15.21-.05.07-.11.12-.15.19-.13.17-.27.34-.4.51-.05,0-.11.03-.18.05-.64.15-1.18.27-1.4.31-1.28.23-2.64.23-2.64.23-.52,0-1.38,0-2.5-.2-.63-.11-1.67-.32-2.91-.92-1.54-.75-2.44-1.66-2.65-1.88,0,0-.15-.15-.29-.32-.95-1.07-2.86-4.92-2.27-10.73.11-1.07.34-2.65.95-4.55.05-.14.1-.29.14-.42.05-.15-.13-.28-.26-.17-1.65,1.4-4.34,4.13-6.04,8.39-.25.64-.47,1.26-.64,1.87h0c-.06.2-.11.39-.15.57,0,.03-.02.06-.02.09-.05.15-.09.32-.11.47-.05.18-.09.35-.12.53-.04.18-.07.35-.11.53-.06.31-.11.61-.14.9,0,.09-.03.17-.04.26,0,.12-.03.26-.04.38-.02.14-.03.3-.05.44,0,.08-.02.16-.02.25,0,.09-.02.17-.02.25-.03.6-.04.97-.04.97,0,.15,0,.35,0,.75v.29c0,.19,0,.38.02.56.44.32,1.03.77,1.77,1.26,1.66,1.14,3.01,1.85,3.96,2.37" fill="#f7f6f6" stroke-width="0"/><path d="M33.51,48.52c-.22.08-.44.15-.66.22-.11.04-.23.08-.35.11-.17.06-.33.11-.51.15-.11.04-.21.07-.32.1-.11.03-.23.06-.34.09-.12.04-.25.07-.37.1-.15.04-.3.08-.44.11-.11.03-.23.06-.34.08h0c-.11.03-.23.05-.35.08-.02,0-.04,0-.06,0-.11.02-.24.05-.36.07h-.02c-.11.02-.21.04-.32.06-.15.03-.31.05-.46.07-.12.02-.25.04-.38.06-.31.04-.61.07-.92.1-.07,0-.12,0-.19.02-.09,0-.18.02-.28.02-.11,0-.22.02-.33.03-.07,0-.13,0-.2,0-.15,0-.31,0-.46.02h-.22c-.08,0-.15,0-.24,0h-.76c-.1,0-.19,0-.28,0-.44,0-.88-.03-1.31-.07-.09,0-.17,0-.26-.02-.3-.03-.59-.06-.88-.1-.11,0-.24-.03-.35-.05-.09,0-.18-.02-.27-.04-.55-.08-1.11-.18-1.65-.31-.1-.02-.19-.04-.29-.06-.03,0-.07-.02-.11-.03-.1-.02-.19-.05-.29-.07-.07-.02-.14-.04-.21-.06,0,0-.02,0-.03,0-.08-.02-.14-.04-.22-.06-.41-.11-.82-.23-1.23-.36l-.11-.04c-.13-.04-.27-.09-.41-.13-.18-.07-.37-.13-.55-.21-.11-.03-.2-.07-.3-.11-.08-.03-.15-.07-.23-.1-.11-.05-.24-.1-.35-.14-.04-.02-.08-.03-.11-.05-.11-.06-.24-.11-.35-.16-.14-.06-.29-.12-.42-.19-.1-.04-.18-.09-.28-.12-.33-.16-.67-.33-.99-.52-.11-.06-.23-.12-.34-.18-.11-.07-.22-.13-.33-.19-.33-.2-.67-.4-.98-.61-.09-.05-.17-.11-.26-.16-.11-.07-.2-.13-.31-.2-.08-.06-.16-.11-.24-.17-2.11-1.47-3.97-3.27-5.54-5.3-.14-.19-.29-.39-.43-.58.43-.07,1-.13,1.69-.18,1.51-.11,2.65-.05,2.95-.03,1.06.07,1.88.19,2.26.26,1.28.23,2.21.52,3.17.82.59.18,1.52.49,2.63.94.18.08.93.38,1.89.84.54.26.96.48,1.59.79.68.35.79.42,1.5.79.42.22,1.13.58,2.53,1.29,1.38.7,1.53.77,1.79.9,0,0,.97.47,1.94.86,1.93.8,3.9,1.37,4.86,1.63Z" fill="#0ca3dd" stroke-width="0"/><path d="M44.36,40.82c-.44.53-.91,1.06-1.38,1.56l-.34.34c-.1.1-.19.19-.29.29-.14.13-.29.27-.43.4-.1.09-.19.17-.29.26-.56.51-1.17.99-1.78,1.44-.16.11-.32.24-.48.35-.74.51-1.49.98-2.27,1.42-1.24-.36-2.69-.85-4.27-1.5-1.98-.81-3.41-1.57-4.3-2.03-.95-.52-2.3-1.23-3.96-2.37-.74-.49-1.33-.94-1.77-1.26,0-.18,0-.37-.02-.56v-.29c0-.4,0-.6,0-.75,0,0,0-.37.04-.97,0-.08,0-.16.02-.25,0-.09,0-.17.02-.25.02-.14.03-.3.05-.44,0-.12.03-.26.04-.38,0-.09.03-.17.04-.26.04-.29.09-.59.14-.9.04-.17.07-.34.11-.53.04-.18.08-.35.12-.53.03-.15.07-.32.11-.47,0-.03,0-.06.02-.09.05-.18.1-.37.15-.56h0c.17-.62.39-1.24.64-1.88,1.71-4.27,4.39-6.99,6.04-8.39.12-.11.31.02.26.17-.05.13-.1.28-.14.42-.6,1.89-.84,3.48-.95,4.55-.59,5.82,1.33,9.66,2.27,10.73.13.16.29.32.29.32.21.22,1.12,1.13,2.65,1.88,1.24.6,2.28.8,2.91.92,1.12.2,1.99.21,2.5.2,0,0,1.36,0,2.64-.23.22-.04.76-.15,1.4-.31.08-.02.13-.04.18-.05Z" fill="#0097d9" stroke-width="0"/><path d="M30.05,17.81c-2.19,1.79-3.68,3.55-4.61,4.83-.93,1.26-3.65,5.19-4.71,10.77-.02.11-.04.21-.06.32l-.04.25c-.11.65-.18,1.31-.18,1.31-.02.13-.04.31-.06.51-.02.23-.03.4-.04.52,0,.11,0,.21-.02.32,0,.11,0,.24-.02.36,0,.13,0,.27,0,.38v.24c0,.11,0,.23,0,.32,0,.11,0,.2,0,.29v.29c-1.38-.68-2.81-1.29-4.32-1.77-4.27-1.3-8.83-1.24-13.11-.11-.19-.35-.37-.72-.54-1.08-.03-.06-.05-.11-.08-.17-.16-.35-.32-.71-.46-1.07-.05-.12-.1-.25-.15-.38-.05-.13-.11-.27-.15-.41-.02-.07-.05-.13-.07-.2-.07-.17-.12-.34-.18-.52-.02-.08-.05-.16-.08-.24-.03-.1-.06-.19-.09-.29-.02-.07-.04-.13-.07-.2-.02-.08-.04-.14-.06-.21,2.93-1.37,5.68-2.9,8.35-4.68.29-.19.56-.38.82-.55,1.3-.89,2.25-1.59,3.08-2.23,0,0,0,0,.02,0,.16-.12.32-.25.49-.37.16-.11.32-.23.47-.34,2.92-2.15,6.03-4.6,9.96-5.57,1.32-.32,3.31-.63,5.9-.32Z" fill="#0ca3dd" stroke-width="0"/></g></svg>