<?xml version="1.0" encoding="UTF-8"?><svg id="Layer_2" xmlns="http://www.w3.org/2000/svg" viewBox="0 0 139.02 139.02"><g id="Layer_1-2"><g><path d="m139.02,69.51c0,14.1-4.2,27.23-11.42,38.19-.54.1-1.13.21-1.66.3-.02,0-.03,0-.04,0-.14.03-.29.04-.43.06-1.07.17-2.11.33-3.17.46-.04,0-.09,0-.13,0-1.64.21-3.32.35-4.93.45-.08,0-.13,0-.14,0,0,0-4.84.3-9.03-.24-.44-.06-.9-.13-.9-.13-.23-.03-.51-.08-.88-.14-.41-.06-.81-.13-1.2-.22-.11-.02-.21-.04-.31-.07-1.65-.34-3.27-.84-4.81-1.48-9.51-3.77-12.05-13.88-12.56-24.29-.19-6.71,1.03-13.27,3.81-19.27.5-1.12,1.04-2.17,1.61-3.22.96-1.75,1.94-3.22,3.01-4.71.42-.59.84-1.13.87-1.18.3-.39.75-.96,1.32-1.65.11-.13.53-.64.87-1.01.07-.08.14-.16.22-.24,1.16-1.24.79-3.26-.75-3.98-.17-.08-.33-.15-.48-.21-.59-.25-1.55-.6-2.02-.77-.42-.16-1.04-.42-1.86-.64-.1-.03-.22-.07-.32-.1-.97-.31-1.96-.59-3.01-.86-28.49-7.25-43.65,9.99-67.64,26.45-5.78,3.84-12.94,8.1-21.68,12.23-.89-4.45-1.36-9.05-1.36-13.76C0,31.12,31.12,0,69.51,0s69.51,31.12,69.51,69.51Z" fill="#ff7bac"/><path d="m79.34,120.54c2.47,1.3,6.45,3.4,11.95,5.66,4.38,1.81,8.42,3.16,11.87,4.17-.24.13-.48.24-.72.37-.16.11-.35.19-.5.27-.19.11-.4.21-.58.32-.16.08-.29.16-.45.21-.19.11-.35.19-.53.29-.11.05-.24.11-.35.16-.27.13-.53.27-.82.4-.21.11-.4.19-.61.29-.32.13-.64.29-.96.42-.19.08-.37.16-.53.24-.05,0-.08.03-.11.03-.24.11-.48.21-.72.32-.35.13-.66.27-1.01.4-.32.13-.66.27-.98.4-.27.11-.5.19-.77.29-.11.03-.24.08-.35.13-2.68-.74-8.15-2.31-13.51-4.54-2.68-1.09-5.39-2.39-5.39-2.39-.72-.35-1.14-.56-4.97-2.5-3.9-1.96-5.87-2.97-7.04-3.58-1.96-1.04-2.28-1.22-4.17-2.2-1.75-.88-2.92-1.49-4.43-2.2-2.68-1.27-4.75-2.12-5.26-2.34-3.08-1.25-5.66-2.1-7.3-2.6-2.68-.85-5.26-1.65-8.82-2.28-1.06-.19-3.35-.53-6.29-.72-.85-.05-4.01-.21-8.2.08-1.91.13-3.5.32-4.7.5-.24-.35-.5-.69-.74-1.04-.19-.27-.37-.56-.56-.85-.05-.05-.11-.13-.13-.19-.19-.27-.35-.53-.53-.8-.03-.05-.08-.13-.13-.19-.42-.66-.82-1.33-1.22-1.99l-.56-.96s-.03-.05-.05-.11c-.21-.35-.4-.69-.58-1.04-.21-.37-.4-.72-.58-1.09,11.9-3.16,24.59-3.32,36.46.29,4.2,1.33,8.15,3.03,12,4.91v-.8c-.03-.24-.03-.5-.03-.8,0-.27,0-.58.03-.9v-.66c0-.32.03-.69.03-1.06.03-.35.03-.69.05-1.01.03-.32.03-.61.05-.9.03-.32.05-.8.11-1.43.05-.56.11-1.04.16-1.41,0,0,.19-1.83.5-3.64l.11-.69c.05-.32.11-.61.16-.9,2.95-15.53,10.51-26.45,13.09-29.95,2.6-3.56,6.74-8.47,12.82-13.44-7.2-.85-12.74,0-16.41.9-10.94,2.68-19.57,9.51-27.69,15.48-.42.32-.85.64-1.3.96-.45.35-.9.69-1.35,1.04-.03,0-.05.03-.05.03-2.31,1.75-4.97,3.72-8.58,6.19-.72.48-1.49,1.01-2.28,1.54-7.41,4.94-15.05,9.21-23.21,13.01-.05-.24-.13-.48-.19-.72-.08-.19-.13-.4-.19-.61-.35-1.33-.66-2.68-.93-4.06,8.74-4.12,15.9-8.39,21.67-12.21,24-16.46,39.16-33.69,67.65-26.45,1.04.27,2.04.53,3,.85.11.03.24.08.32.11.82.21,1.43.48,1.86.64.48.16,1.43.53,2.02.77.16.05.32.13.48.21,1.54.72,1.91,2.73.77,3.98-.08.08-.16.16-.24.24-.32.37-.74.88-.85,1.01-.58.69-1.04,1.25-1.33,1.65-.03.05-.45.58-.88,1.17-1.06,1.51-2.04,2.97-3,4.73-.58,1.04-1.12,2.1-1.62,3.21-2.79,6-4.01,12.56-3.8,19.28.5,10.41,3.03,20.52,12.53,24.29,1.54.64,3.16,1.14,4.81,1.49.11.03.21.03.32.05.4.08.8.16,1.19.21.37.08.66.11.88.16,0,0,.48.05.9.11,4.2.56,9.05.27,9.05.27,0,0,.05-.03.13-.03,1.62-.08,3.29-.24,4.94-.45h.13c1.06-.13,2.1-.29,3.16-.45.13-.03.29-.05.42-.08h.05c.53-.11,1.12-.19,1.65-.29-.19.29-.37.58-.58.88-.16.24-.32.48-.5.72-.08.16-.19.29-.29.42-.13.21-.29.4-.45.61-.13.21-.29.42-.45.64-.16.21-.29.4-.42.58-.13.19-.29.35-.42.53-.37.48-.74.96-1.12,1.41-.13.03-.29.08-.5.13-1.78.42-3.29.74-3.9.85-3.56.64-7.33.64-7.33.64-1.43.03-3.85,0-6.96-.56-1.75-.32-4.65-.88-8.1-2.55-4.27-2.1-6.8-4.62-7.38-5.23,0,0-.42-.42-.8-.88-2.63-2.97-7.97-13.67-6.32-29.84.29-2.97.96-7.38,2.63-12.64.13-.4.27-.8.4-1.17.13-.42-.37-.77-.72-.48-4.59,3.9-12.05,11.47-16.81,23.34-.69,1.78-1.3,3.5-1.78,5.2l-.03.03c-.16.53-.29,1.06-.42,1.57-.03.08-.05.16-.05.24-.13.42-.24.88-.32,1.3-.13.5-.24.98-.35,1.49-.11.5-.19.98-.29,1.46-.16.85-.29,1.7-.4,2.5-.03.24-.08.48-.11.72-.03.35-.08.72-.11,1.06-.05.4-.08.82-.13,1.22-.03.21-.05.45-.05.69-.03.24-.05.48-.05.69-.08,1.67-.11,2.71-.11,2.71-.03.42-.03.98,0,2.1v.8c.03.53.03,1.06.05,1.57,1.22.9,2.87,2.15,4.91,3.5,4.62,3.16,8.36,5.15,11.02,6.58" fill="#f7f6f6"/><path d="m93.18,134.9c-.61.21-1.22.42-1.83.61-.32.11-.64.21-.98.32-.48.16-.93.29-1.41.42-.29.11-.58.19-.88.27-.32.08-.64.16-.96.24-.35.11-.69.19-1.04.27-.42.11-.82.21-1.22.29-.32.08-.64.16-.96.21h-.03c-.32.08-.64.13-.98.21-.05,0-.11,0-.16.03-.32.05-.66.13-1.01.19h-.05c-.29.05-.58.11-.9.16-.42.08-.85.13-1.27.19-.35.05-.69.11-1.06.16-.85.11-1.7.19-2.55.27-.19.03-.35.03-.53.05-.24.03-.5.05-.77.05-.32.03-.61.05-.93.08-.19,0-.37,0-.56.03-.42.03-.85.03-1.27.05h-.61c-.21.03-.42.03-.66.03h-2.12c-.27,0-.53,0-.77-.03-1.22-.03-2.44-.08-3.64-.19-.24-.03-.48-.03-.72-.05-.82-.08-1.65-.16-2.44-.27-.32-.03-.66-.08-.98-.13-.24-.03-.5-.05-.74-.11-1.54-.21-3.08-.5-4.59-.85-.27-.05-.53-.11-.8-.16-.08-.03-.19-.05-.29-.08-.27-.05-.53-.13-.8-.19-.19-.05-.4-.11-.58-.16-.03,0-.05,0-.08-.03-.21-.05-.4-.11-.61-.16-1.14-.29-2.28-.64-3.43-1.01l-.29-.11c-.37-.11-.74-.24-1.14-.37-.5-.19-1.04-.37-1.54-.58-.29-.08-.56-.19-.82-.29-.21-.08-.42-.19-.64-.27-.32-.13-.66-.27-.98-.4-.11-.05-.21-.08-.32-.13-.32-.16-.66-.29-.98-.45-.4-.16-.8-.35-1.17-.53-.27-.11-.5-.24-.77-.35-.93-.45-1.86-.93-2.76-1.43-.32-.16-.64-.35-.96-.5-.32-.19-.61-.37-.93-.53-.93-.56-1.86-1.12-2.73-1.7-.24-.13-.48-.29-.72-.45-.29-.19-.56-.37-.85-.56-.21-.16-.45-.32-.66-.48-5.87-4.09-11.05-9.08-15.4-14.74-.4-.53-.8-1.09-1.19-1.62,1.19-.19,2.79-.37,4.7-.5,4.2-.29,7.35-.13,8.2-.08,2.95.19,5.23.53,6.29.72,3.56.64,6.13,1.43,8.82,2.28,1.65.5,4.22,1.35,7.3,2.6.5.21,2.58,1.06,5.26,2.34,1.51.72,2.68,1.33,4.43,2.2,1.89.98,2.2,1.17,4.17,2.2,1.17.61,3.13,1.62,7.04,3.58,3.82,1.94,4.25,2.15,4.97,2.5,0,0,2.71,1.3,5.39,2.39,5.36,2.23,10.83,3.8,13.51,4.54Z" fill="#0ca3dd"/><path d="m123.34,113.5c-1.22,1.49-2.52,2.95-3.85,4.33l-.96.96c-.27.27-.53.53-.8.8-.4.37-.8.74-1.19,1.12-.27.24-.53.48-.8.72-1.57,1.41-3.24,2.76-4.94,4.01-.45.32-.88.66-1.33.98-2.04,1.41-4.14,2.73-6.32,3.96-3.45-1.01-7.49-2.36-11.87-4.17-5.5-2.26-9.48-4.35-11.95-5.66-2.66-1.43-6.4-3.43-11.02-6.58-2.04-1.35-3.69-2.6-4.91-3.5-.03-.5-.03-1.04-.05-1.57v-.8c-.03-1.12-.03-1.67,0-2.1,0,0,.03-1.04.11-2.71,0-.21.03-.45.05-.69,0-.24.03-.48.05-.69.05-.4.08-.82.13-1.22.03-.35.08-.72.11-1.06.03-.24.08-.48.11-.72.11-.8.24-1.65.4-2.5.11-.48.19-.96.29-1.46.11-.5.21-.98.35-1.49.08-.42.19-.88.32-1.3,0-.08.03-.16.05-.24.13-.5.27-1.04.42-1.57l.03-.03c.48-1.7,1.09-3.43,1.78-5.2,4.75-11.87,12.21-19.44,16.81-23.34.35-.29.85.05.72.48-.13.37-.27.77-.4,1.17-1.67,5.26-2.34,9.66-2.63,12.64-1.65,16.17,3.69,26.87,6.32,29.84.37.45.8.88.8.88.58.61,3.11,3.13,7.38,5.23,3.45,1.67,6.35,2.23,8.1,2.55,3.11.56,5.52.58,6.96.56,0,0,3.77,0,7.33-.64.61-.11,2.12-.42,3.9-.85.21-.05.37-.11.5-.13Z" fill="#0097d9"/><path d="m83.54,49.51c-6.08,4.97-10.22,9.88-12.82,13.44-2.58,3.5-10.14,14.42-13.09,29.95-.05.29-.11.58-.16.9l-.11.69c-.32,1.81-.5,3.64-.5,3.64-.05.37-.11.85-.16,1.41-.05.64-.08,1.12-.11,1.43-.03.29-.03.58-.05.9-.03.32-.03.66-.05,1.01,0,.37-.03.74-.03,1.06v.66c-.03.32-.03.64-.03.9,0,.29,0,.56.03.8v.8c-3.85-1.89-7.81-3.58-12-4.91-11.87-3.61-24.56-3.45-36.46-.29-.53-.98-1.04-1.99-1.51-3-.08-.16-.13-.32-.21-.48-.45-.98-.88-1.96-1.27-2.97-.13-.35-.27-.69-.42-1.06-.13-.37-.29-.74-.42-1.14-.05-.19-.13-.37-.19-.56-.19-.48-.35-.96-.5-1.43-.05-.21-.13-.45-.21-.66-.08-.27-.16-.53-.24-.8-.05-.19-.11-.37-.19-.56-.05-.21-.11-.4-.16-.58,8.15-3.8,15.8-8.07,23.21-13.01.8-.53,1.57-1.06,2.28-1.54,3.61-2.47,6.27-4.43,8.58-6.19,0,0,.03-.03.05-.03.45-.35.9-.69,1.35-1.04.45-.32.88-.64,1.3-.96,8.12-5.97,16.75-12.8,27.69-15.48,3.66-.9,9.21-1.75,16.41-.9Z" fill="#0ca3dd"/></g></g></svg>