<?xml version="1.0" encoding="UTF-8"?><svg id="Layer_1" xmlns="http://www.w3.org/2000/svg" viewBox="0 0 834.38 100.07"><path d="M120.04,70.04l-.54-2.51c-.81-3.4.98-5.82,3.76-5.82,2.42,0,3.76,1.7,4.21,3.94l.54,2.69c1.07,5.37,4.57,7.25,8.69,7.25,4.84,0,8.96-2.6,8.96-8.6,0-4.48-2.33-7.7-4.66-9.58l-11.64-9.67c-3.76-3.04-8.15-7.08-8.15-14.96,0-9.49,6.45-16.03,16.57-16.03s16.12,7.08,16.12,13.43v.54c0,1.88-1.34,3.67-3.94,3.67s-3.58-1.79-4.21-3.85l-.36-.9c-1.07-3.58-3.94-5.46-7.61-5.46-4.75,0-8.33,2.96-8.33,8.33,0,3.85,1.88,6.36,3.85,7.97l14.51,12c1.79,1.52,6.09,5.73,6.09,13.97,0,10.21-6.72,16.57-17.11,16.57s-15.23-6.54-16.75-12.99Z" fill="#fff" stroke-width="0"/><path d="M163.76,33.05c0-9.31,6.81-16.3,17.38-16.3s17.38,6.99,17.38,16.3v33.77c0,9.23-6.81,16.21-17.38,16.21s-17.38-6.99-17.38-16.21v-33.77ZM172.18,33.5v32.78c0,6.36,4.48,9.14,8.96,9.14s8.96-2.78,8.96-9.14v-32.78c0-6.27-4.48-9.14-8.96-9.14s-8.96,2.87-8.96,9.14Z" fill="#fff" stroke-width="0"/><path d="M245,66.55c0,9.32-6.63,16.48-17.47,16.48s-17.47-7.17-17.47-16.48V20.87c0-1.88,1.43-4.12,4.21-4.12s4.21,2.24,4.21,4.12v45.23c0,6.45,4.03,9.31,9.05,9.31s9.05-2.87,9.05-9.31V20.87c0-1.88,1.34-4.12,4.12-4.12,2.96,0,4.3,2.24,4.3,4.12v45.68Z" fill="#fff" stroke-width="0"/><path d="M284.41,17.64c2.51,0,3.94,1.79,3.94,3.76s-1.43,3.85-3.94,3.85h-10.3v53.65c0,1.88-1.43,4.12-4.3,4.12-2.69,0-4.12-2.24-4.12-4.12V25.26h-10.3c-2.51,0-3.94-1.88-3.94-3.76,0-2.06,1.43-3.85,3.94-3.85h29.02Z" fill="#fff" stroke-width="0"/><path d="M331.52,78.91c0,1.88-1.43,4.12-4.21,4.12s-4.21-2.24-4.21-4.12v-25.53h-19.44v25.53c0,1.88-1.43,4.12-4.3,4.12-2.69,0-4.12-2.24-4.12-4.12V20.87c0-1.88,1.43-4.12,4.12-4.12,2.87,0,4.3,2.24,4.3,4.12v24.81h19.44v-24.81c0-1.88,1.43-4.12,4.21-4.12s4.21,2.24,4.21,4.12v58.04Z" fill="#fff" stroke-width="0"/><path d="M342.18,70.04l-.54-2.51c-.81-3.4.99-5.82,3.76-5.82,2.42,0,3.76,1.7,4.21,3.94l.54,2.69c1.07,5.37,4.57,7.25,8.69,7.25,4.84,0,8.96-2.6,8.96-8.6,0-4.48-2.33-7.7-4.66-9.58l-11.64-9.67c-3.76-3.04-8.15-7.08-8.15-14.96,0-9.49,6.45-16.03,16.57-16.03s16.12,7.08,16.12,13.43v.54c0,1.88-1.34,3.67-3.94,3.67s-3.58-1.79-4.21-3.85l-.36-.9c-1.07-3.58-3.94-5.46-7.61-5.46-4.75,0-8.33,2.96-8.33,8.33,0,3.85,1.88,6.36,3.85,7.97l14.51,12c1.79,1.52,6.09,5.73,6.09,13.97,0,10.21-6.72,16.57-17.11,16.57s-15.23-6.54-16.75-12.99Z" fill="#fff" stroke-width="0"/><path d="M395.39,78.91c0,1.88-1.43,4.12-4.3,4.12-2.69,0-4.12-2.24-4.12-4.12V20.87c0-1.88,1.43-4.12,4.12-4.12,2.87,0,4.3,2.24,4.3,4.12v58.04Z" fill="#fff" stroke-width="0"/><path d="M413.57,82.13c-2.87,0-4.3-2.15-4.3-4.03V21.67c0-1.88,1.43-4.03,4.3-4.03h13.08c10.12,0,17.38,6.99,17.38,16.3v31.89c0,9.32-7.26,16.3-17.38,16.3h-13.08ZM426.65,74.52c4.48,0,8.96-2.78,8.96-9.14v-30.9c0-6.36-4.48-9.23-8.96-9.23h-8.96v49.26h8.96Z" fill="#fff" stroke-width="0"/><path d="M456.03,21.67c0-1.88,1.43-4.03,4.3-4.03h22.93c2.6,0,4.03,1.79,4.03,3.76s-1.43,3.85-4.03,3.85h-18.81v20.42h13.97c2.6,0,4.03,1.88,4.03,3.85s-1.43,3.76-4.03,3.76h-13.97v21.23h18.81c2.6,0,4.03,1.88,4.03,3.76,0,2.06-1.43,3.85-4.03,3.85h-22.93c-2.87,0-4.3-2.15-4.3-4.03V21.67Z" fill="#fff" stroke-width="0"/><path d="M542.47,64.22c0-1.88,1.34-4.12,4.12-4.12s4.3,2.24,4.3,4.12v2.6c0,9.23-6.9,16.21-17.47,16.21s-17.38-6.99-17.38-16.21v-33.77c0-9.31,6.81-16.3,17.47-16.3s16.39,7.08,16.39,13.35v.54c0,1.88-1.52,3.76-4.12,3.76s-3.76-1.88-4.39-3.94l-.27-.9c-.99-3.4-3.67-5.19-7.52-5.19-4.84,0-9.14,2.96-9.14,9.14v32.78c0,6.36,4.48,9.14,8.96,9.14s9.05-2.78,9.05-9.14v-2.06Z" fill="#fff" stroke-width="0"/><path d="M565.04,82.13c-2.69,0-4.12-1.97-4.12-3.94V20.87c0-1.88,1.43-4.12,4.12-4.12,2.87,0,4.3,2.24,4.3,4.12v53.65h17.2c2.51,0,3.94,1.88,3.94,3.76,0,2.06-1.43,3.85-3.94,3.85h-21.5Z" fill="#fff" stroke-width="0"/><path d="M607.5,78.91c0,1.88-1.43,4.12-4.3,4.12-2.69,0-4.12-2.24-4.12-4.12V20.87c0-1.88,1.43-4.12,4.12-4.12,2.87,0,4.3,2.24,4.3,4.12v58.04Z" fill="#fff" stroke-width="0"/><path d="M661.15,64.31c.09-14.78.18-17.56.81-27.77h-.45c-.99,3.85-4.57,13.35-6,17.11l-5.73,15.85c-1.08,2.69-2.87,3.04-4.39,3.04-1.43,0-3.31-.36-4.3-3.04l-5.82-15.85c-.54-1.52-5.11-13.44-6-17.11h-.45c.72,9.58.9,18.36.9,27.77l.09,14.6c0,1.88-1.34,4.12-4.3,4.12-2.78,0-4.12-2.24-4.12-4.12V22.21c0-3.4,1.43-5.46,4.3-5.46,2.33,0,4.12,1.43,5.19,4.12l14.24,38.16h.54l14.33-38.16c1.08-2.69,2.78-4.12,5.11-4.12,2.96,0,4.39,2.06,4.39,5.46v56.7c0,1.88-1.43,4.12-4.3,4.12-2.69,0-4.12-2.24-4.12-4.12l.09-14.6Z" fill="#fff" stroke-width="0"/><path d="M687.66,82.13c-2.87,0-4.3-2.15-4.3-4.03V21.67c0-1.88,1.43-4.03,4.3-4.03h10.03c11.64,0,19.88,6.9,19.88,16.03v.81c0,5.55-3.31,11.11-9.49,13.52,7.79,3.14,10.39,9.32,10.39,15.32v.72c0,10.39-8.15,18.09-19.79,18.09h-11.02ZM697.69,45.14c5.82,0,11.46-2.96,11.46-9.67v-.54c0-6.72-5.64-9.67-11.46-9.67h-6v19.88h6ZM698.68,74.52c5.82,0,11.38-3.67,11.38-11.02v-.54c0-7.34-5.64-10.12-11.38-10.12h-6.99v21.68h6.99Z" fill="#fff" stroke-width="0"/><path d="M737.55,78.91c0,1.88-1.43,4.12-4.3,4.12-2.69,0-4.12-2.24-4.12-4.12V20.87c0-1.88,1.43-4.12,4.12-4.12,2.87,0,4.3,2.24,4.3,4.12v58.04Z" fill="#fff" stroke-width="0"/><path d="M779.2,20.87c0-1.88,1.43-4.12,4.3-4.12,2.69,0,4.12,2.24,4.12,4.12v56.7c0,3.31-1.43,5.46-4.21,5.46-2.06,0-3.76-1.16-4.93-3.94l-19.08-41.83h-.45c.54,7.17.9,14.24.9,20.24v21.41c0,1.88-1.43,4.12-4.3,4.12-2.69,0-4.12-2.24-4.12-4.12V22.21c0-3.4,1.43-5.46,4.21-5.46,2.06,0,3.67,1.16,4.93,4.12l19.08,41.56h.45c-.54-7.17-.9-13.97-.9-19.97v-21.59Z" fill="#fff" stroke-width="0"/><path d="M830.26,47.2c2.69,0,4.12,1.97,4.12,3.94v15.67c0,9.23-6.81,16.21-17.29,16.21s-17.47-6.99-17.47-16.21v-33.77c0-9.31,6.72-16.3,17.29-16.3s16.57,7.08,16.57,13.35v.54c0,1.88-1.43,3.76-4.21,3.76s-3.58-1.79-4.21-3.94l-.27-.9c-1.08-3.31-3.76-5.19-7.7-5.19-4.57,0-9.05,2.96-9.05,9.23v32.6c0,6.27,4.39,9.23,8.96,9.23s8.96-2.96,8.96-9.23v-11.46h-6.45c-2.15-.09-3.49-1.79-3.49-3.76s1.43-3.76,3.94-3.76h10.3Z" fill="#fff" stroke-width="0"/><path d="M60,35.62c-4.4,3.59-7.39,7.14-9.27,9.72-1.86,2.53-7.33,10.43-9.47,21.66,0,.03,0,.05-.01.08,0,.05-.02.11-.03.16,0,.03,0,.05-.01.08,0,.05-.02.11-.03.16s-.02.11-.03.17c0,0-.04.25-.08.5-.23,1.31-.36,2.63-.36,2.63-.04.27-.08.61-.12,1.02-.04.46-.06.81-.08,1.04-.02.21-.02.42-.04.65-.02.23-.02.48-.04.73,0,.27-.02.54-.02.77v.48c-.02.23-.02.46-.02.65,0,.21,0,.4.02.58v.58c-2.78-1.36-5.65-2.59-8.68-3.55-.1-.03-.2-.06-.3-.09-.06-.02-.12-.04-.18-.05-.04-.01-.09-.03-.13-.04,0,0,0,0,0,0-.13-.04-.27-.08-.4-.11-.04-.01-.09-.02-.13-.04-.07-.02-.13-.04-.19-.05-.06-.02-.12-.03-.18-.05-.34-.09-.68-.18-1.02-.26-.09-.02-.19-.04-.28-.07-.08-.02-.17-.04-.25-.06-.11-.02-.21-.05-.32-.07-.09-.02-.18-.04-.27-.06-.06-.01-.12-.02-.17-.04-.06-.01-.12-.02-.18-.04-.1-.02-.2-.04-.3-.06-.36-.07-.71-.14-1.07-.2-.12-.02-.24-.04-.36-.06-.03,0-.07-.01-.1-.02-.09-.01-.17-.03-.26-.04-.1-.02-.2-.03-.3-.05-.14-.02-.28-.04-.42-.06-.14-.02-.28-.04-.42-.06-.09-.01-.19-.02-.28-.04-.08-.01-.17-.02-.25-.03-.05,0-.1-.01-.14-.02-.1-.01-.2-.02-.3-.03-.06,0-.12-.01-.18-.02-.09,0-.18-.02-.27-.03-.11-.01-.22-.02-.33-.03-.11-.01-.22-.02-.33-.03-.02,0-.03,0-.05,0-.12-.01-.24-.02-.36-.03-.08,0-.16-.01-.24-.02-.48-.03-.96-.06-1.45-.08,0,0,0,0,0,0-.09,0-.18,0-.27,0-.09,0-.19,0-.28,0-.05,0-.11,0-.16,0-.16,0-.31,0-.47,0-.23,0-.47,0-.7,0-.53,0-1.07,0-1.6.03-.04,0-.08,0-.12,0-.01,0-.03,0-.04,0-.07,0-.13,0-.2,0-.01,0-.02,0-.04,0-.03,0-.07,0-.1,0-.1,0-.21,0-.31.01-.06,0-.12,0-.19,0-.08,0-.16,0-.24.01-.05,0-.1,0-.15,0-.07,0-.13,0-.2.01-.13,0-.27.02-.4.03-.06,0-.12,0-.17.01-.08,0-.17.01-.25.02-.12.01-.25.02-.37.03-.09,0-.18.02-.27.02-.08,0-.16.02-.24.02-.08,0-.15.02-.23.02-.04,0-.07,0-.11.01-.05,0-.1.01-.15.02-.08,0-.16.02-.24.03-.12.01-.24.03-.36.04-.11.01-.23.03-.34.04-.22.03-.43.06-.65.09-.06,0-.12.02-.19.03-.06,0-.13.02-.19.03-.04,0-.09.01-.13.02-.07.01-.14.02-.21.03-.09.01-.18.03-.27.04-.13.02-.26.04-.39.07-.11.02-.22.04-.34.06-.04,0-.09.02-.13.02-.1.02-.21.04-.31.06-.07.01-.14.03-.21.04-.05,0-.1.02-.16.03-.03,0-.06.01-.09.02-.11.02-.22.04-.33.07-.03,0-.06.01-.09.02-.08.02-.16.03-.23.05-.06.01-.13.03-.19.04-.17.04-.34.07-.51.11-.05.01-.1.02-.15.03,0,0-.02,0-.03,0-.09.02-.18.04-.27.06-.05.01-.09.02-.14.03-.11.03-.22.05-.33.08-.06.01-.12.03-.18.04-.1.02-.2.05-.3.07-.11.03-.21.05-.32.08-1.61-3.05-2.92-6.28-3.88-9.66.03-.01.05-.02.08-.04.15-.07.31-.14.46-.22.11-.05.22-.1.32-.15.43-.21.86-.41,1.29-.63.14-.07.28-.14.41-.2.32-.16.63-.32.95-.47.15-.08.31-.16.46-.23.01,0,.02-.01.03-.02.11-.05.21-.11.32-.16.01,0,.03-.01.04-.02.1-.05.2-.1.3-.16.24-.13.49-.25.73-.38.14-.07.28-.15.42-.22.02-.01.04-.02.06-.03.15-.08.31-.16.46-.25.09-.05.17-.09.26-.14.04-.02.09-.05.13-.07.04-.02.09-.05.13-.07.17-.09.34-.19.51-.28.19-.1.37-.21.56-.31.13-.07.27-.15.4-.22.08-.05.16-.09.24-.14.09-.05.17-.1.26-.14.27-.15.55-.31.82-.47.09-.05.19-.11.28-.16.15-.09.3-.18.46-.27.02-.01.04-.02.06-.03.09-.05.18-.1.27-.16.55-.33,1.1-.66,1.65-.99.17-.1.34-.21.51-.31.02-.01.04-.02.06-.04.15-.09.3-.19.45-.28.17-.11.34-.21.51-.32.17-.11.34-.21.51-.32.17-.11.34-.22.51-.33.17-.11.34-.22.5-.33.17-.11.34-.22.5-.33.17-.11.34-.22.5-.33.58-.38,1.13-.77,1.65-1.11,2.61-1.79,4.53-3.21,6.2-4.47,0,0,.02-.02.04-.02.33-.25.65-.5.98-.75.33-.23.63-.46.94-.69,5.88-4.32,12.12-9.26,20.03-11.19,2.65-.65,6.66-1.27,11.87-.65Z" fill="#ff7bac" stroke-width="0"/><path d="M66.59,97.27c-5.18,1.82-10.75,2.8-16.56,2.8-16.67,0-31.43-8.15-40.52-20.68.8-.11,1.79-.22,2.94-.3,3.03-.21,5.32-.1,5.93-.06,2.13.13,3.78.38,4.55.52,2.57.46,4.44,1.04,6.38,1.65,1.19.36,3.05.98,5.28,1.88.36.15,1.86.77,3.8,1.69,1.09.52,1.94.96,3.21,1.59,1.36.71,1.59.84,3.01,1.59.85.44,2.27,1.17,5.09,2.59,2.77,1.4,3.07,1.56,3.59,1.81,0,0,1.96.94,3.9,1.73.61.25,1.21.49,1.82.72.12.04.24.09.35.13,0,0,0,0,0,0,.12.04.23.09.35.13.12.04.24.09.37.13.11.04.23.08.34.12.23.08.47.16.7.24.11.04.23.08.34.12,0,0,.01,0,.02,0,.06.02.11.04.17.06.11.04.21.07.32.11.06.02.12.04.18.06.1.03.21.07.31.1.06.02.12.04.18.06.06.02.12.04.17.06.05.02.1.03.15.05.05.02.09.03.14.04,0,0,.01,0,.02,0,.1.03.2.06.29.09.11.03.22.07.33.1.1.03.2.06.3.09.04.01.08.03.12.04.15.05.31.09.45.14.09.03.18.05.26.08,0,0,.01,0,.02,0,.09.03.18.05.27.08.04.01.09.03.13.04.25.07.48.14.7.2.02,0,.05.01.07.02.03,0,.06.02.09.02.03,0,.07.02.1.03.11.03.22.06.33.09Z" fill="#ff7bac" stroke-width="0"/><path d="M100.07,50.04c0,10.24-3.08,19.77-8.36,27.7-.19.04-.39.07-.59.1,0,0,0,0-.01,0-.08.01-.17.03-.25.04-.07.01-.13.02-.19.04h-.04s-.09.02-.14.03c0,0,0,0,0,0-.05.01-.11.02-.16.03-.77.12-1.52.23-2.28.33h-.1c-.41.05-.81.1-1.22.14-.62.07-1.25.12-1.86.16-.02,0-.03,0-.05,0-.15,0-.29.02-.44.02-.03,0-.05,0-.07,0-.02,0-.03.01-.03.01,0,0-2.17.13-4.58,0-.06,0-.12,0-.18-.01-.6-.04-1.2-.09-1.79-.17-.13-.02-.27-.03-.39-.05,0,0,0,0,0,0-.15-.02-.26-.03-.26-.03-.05-.01-.11-.02-.18-.04h0s-.07-.01-.1-.02c-.04,0-.07-.01-.11-.02,0,0,0,0,0,0-.07-.01-.15-.03-.23-.04-.29-.04-.58-.1-.86-.15-.03,0-.06-.01-.09-.02,0,0,0,0,0,0-.05,0-.09-.01-.14-.02-1.19-.25-2.36-.61-3.48-1.08-1.48-.59-2.73-1.39-3.77-2.36,0,0,0,0,0,0,0,0,0,0,0,0-1.27-1.17-2.24-2.6-2.99-4.19-.07-.14-.13-.29-.2-.43-.02-.05-.04-.1-.06-.15-1.31-3.08-1.85-6.73-2.03-10.44-.04-1.27,0-2.53.09-3.78,0-.05,0-.1.01-.15.3-3.48,1.17-6.85,2.64-10.01.02-.05.05-.1.07-.15.02-.06.05-.11.08-.17.09-.2.19-.4.29-.6.03-.07.07-.13.1-.2.03-.05.05-.1.08-.16.02-.05.05-.09.07-.14.03-.06.06-.11.09-.17.13-.25.26-.49.4-.74.59-1.08,1.19-2.01,1.83-2.93.11-.16.22-.32.34-.49.09-.13.18-.25.27-.36.2-.26.35-.46.37-.49.01-.02.03-.04.04-.05,0,0,0,0,0,0,.1-.13.22-.28.36-.46,0,0,.01-.01.02-.02.16-.19.34-.41.54-.66.07-.08.31-.37.53-.63,0,0,0,0,0,0,.03-.03.06-.07.08-.1l.17-.17c.19-.21.33-.45.4-.71.01-.04.02-.08.03-.12,0-.03.01-.07.02-.1,0,0,0,0,0,0,0-.02,0-.05.01-.08,0-.02,0-.04,0-.06.05-.49-.11-1-.44-1.38h0s0,0,0,0c-.16-.18-.35-.33-.59-.44-.02-.01-.04-.02-.06-.03-.08-.04-.17-.08-.25-.11-.01,0-.02,0-.03-.01-.21-.09-.49-.2-.76-.3-.02,0-.04-.01-.05-.02-.2-.08-.39-.15-.54-.2,0,0,0,0,0,0-.04-.01-.07-.02-.1-.04-.08-.03-.16-.06-.26-.1-.02,0-.05-.02-.07-.03-.06-.02-.13-.05-.19-.07-.03-.01-.07-.03-.1-.04-.02,0-.04-.01-.05-.02-.02,0-.04-.01-.06-.02-.01,0-.03-.01-.04-.02-.02,0-.03-.01-.05-.02-.16-.05-.33-.1-.51-.15-.03,0-.06-.02-.1-.03-.03-.01-.07-.02-.1-.03,0,0,0,0,0,0-.01,0-.02,0-.03,0-.08-.03-.16-.05-.24-.08,0,0-.01,0-.02,0-.29-.09-.58-.18-.87-.26-.34-.09-.69-.18-1.04-.27-14.19-3.61-23.81,1.18-34.09,8.4-.39.27-.78.55-1.16.83-.07.05-.14.1-.22.16-.02.01-.04.03-.06.04-.07.05-.14.1-.21.15-.14.1-.28.2-.41.3-.1.07-.21.15-.31.23-.1.08-.21.15-.31.23-.07.05-.15.11-.22.16-.15.11-.29.21-.44.32h0c-.15.11-.29.21-.44.32-.07.05-.15.11-.22.16-.8.59-1.61,1.19-2.43,1.8-.33.25-.67.49-1,.74-2.36,1.74-4.8,3.53-7.39,5.3-4.08,2.71-9.14,5.73-15.28,8.65-.63-3.17-.96-6.45-.96-9.8C0,23.59,20.52,1.93,46.52.12c.1,0,.2-.01.31-.02.01,0,.02,0,.03,0,.04,0,.08,0,.12,0,.16,0,.32-.02.48-.03.21-.01.43-.02.64-.03.04,0,.09,0,.13,0,.06,0,.12,0,.18,0,.1,0,.21,0,.32,0,0,0,.02,0,.03,0,.11,0,.21,0,.32,0,.05,0,.11,0,.16,0,.05,0,.11,0,.16,0,.09,0,.17,0,.26,0,.03,0,.06,0,.1,0,.1,0,.2,0,.29,0,.11,0,.21,0,.32,0h.02c.1,0,.2,0,.31,0,.05,0,.11,0,.16,0,.16,0,.32,0,.48,0,.11,0,.21,0,.32,0,.09,0,.18,0,.27,0,.05,0,.11,0,.16,0,.15,0,.3.01.44.02.06,0,.12,0,.18,0,.08,0,.17,0,.25.01.1,0,.21.01.31.02,26.13,1.66,46.81,23.38,46.81,49.93Z" fill="#ff7bac" stroke-width="0"/><path d="M66.59,97.27c-5.18,1.82-10.75,2.8-16.56,2.8-16.67,0-31.43-8.15-40.52-20.68.8-.11,1.79-.22,2.94-.3,3.03-.21,5.32-.1,5.93-.06,2.13.13,3.78.38,4.55.52,2.57.46,4.44,1.04,6.38,1.65,1.19.36,3.05.98,5.28,1.88.36.15,1.86.77,3.8,1.69,1.09.52,1.94.96,3.21,1.59,1.36.71,1.59.84,3.01,1.59.85.44,2.27,1.17,5.09,2.59,2.77,1.4,3.07,1.56,3.59,1.81,0,0,1.96.94,3.9,1.73.61.25,1.21.49,1.82.72.12.04.24.09.35.13,0,0,0,0,0,0,.12.04.23.09.35.13.12.04.24.09.37.13.11.04.23.08.34.12.23.08.47.16.7.24.11.04.23.08.34.12,0,0,.01,0,.02,0,.06.02.11.04.17.06.11.04.21.07.32.11.06.02.12.04.18.06.1.03.21.07.31.1.06.02.12.04.18.06.06.02.12.04.17.06.05.02.1.03.15.05.05.02.09.03.14.04,0,0,.01,0,.02,0,.1.03.2.06.29.09.11.03.22.07.33.1.1.03.2.06.3.09.04.01.08.03.12.04.15.05.31.09.45.14.09.03.18.05.26.08,0,0,.01,0,.02,0,.09.03.18.05.27.08.04.01.09.03.13.04.25.07.48.14.7.2.02,0,.05.01.07.02.03,0,.06.02.09.02.03,0,.07.02.1.03.11.03.22.06.33.09Z" fill="#0ca3dd" stroke-width="0"/><path d="M88.57,81.95c-.08.1-.16.19-.24.29-4.01,4.76-8.89,8.77-14.4,11.77-.05.03-.1.06-.15.08-2.36-.71-5.06-1.63-7.98-2.84-.36-.15-.7-.29-1.04-.43-.04-.02-.09-.04-.13-.05-.04-.02-.08-.03-.12-.05-.06-.03-.12-.05-.18-.08-2.07-.89-3.79-1.73-5.18-2.43-.09-.04-.17-.09-.25-.13-.04-.02-.08-.04-.12-.06-.61-.32-1.15-.6-1.62-.84-.03-.02-.06-.03-.09-.05-.2-.11-.41-.22-.64-.34-.02-.01-.04-.02-.06-.03-1.84-1-4.26-2.34-7.15-4.32-.01,0-.02-.02-.04-.02-.86-.57-1.63-1.12-2.29-1.6-.01,0-.02-.02-.04-.03-.46-.34-.87-.64-1.23-.91,0-.02,0-.03,0-.05-.06-.05-.12-.09-.18-.14-.02-.36-.02-.75-.04-1.13v-.58c-.02-.81-.02-1.21,0-1.52,0,0,.02-.75.08-1.96,0-.15.02-.33.04-.5,0-.17.02-.35.04-.5.04-.29.06-.6.1-.88,0-.1.02-.21.03-.31,0-.04,0-.08.01-.12,0-.08.02-.16.02-.24,0-.03,0-.06,0-.09,0-.02,0-.04,0-.06,0-.02,0-.04,0-.06,0-.04.01-.08.02-.11,0-.02,0-.04,0-.06,0-.02,0-.04,0-.06,0-.06.02-.11.02-.17.08-.58.17-1.19.29-1.81.08-.35.13-.69.21-1.06.08-.36.15-.71.25-1.08.06-.31.13-.63.23-.94,0-.06.02-.12.04-.17.1-.36.19-.75.31-1.13l.02-.02c.35-1.23.79-2.48,1.29-3.76,3.44-8.58,8.83-14.06,12.15-16.88.19-.16.44-.06.51.13.03.06.03.14,0,.22-.1.27-.19.56-.29.85-1.21,3.8-1.69,6.99-1.9,9.14-1.19,11.69,2.67,19.43,4.57,21.58.27.33.58.63.58.63.06.06.15.15.26.26,0,0,0,0,0,0,.7.69,2.42,2.21,5.07,3.51,2.5,1.21,4.59,1.61,5.86,1.84,2.25.4,3.99.42,5.03.4,0,0,2.73,0,5.3-.46.44-.08,1.54-.31,2.82-.61.06-.01.11-.03.16-.04Z" fill="#0097d9" stroke-width="0"/><path d="M91.71,77.74c-.05.08-.11.16-.16.24h0c-.93,1.37-1.92,2.7-2.97,3.97-.05.01-.1.03-.16.04-1.29.31-2.38.54-2.82.61-2.57.46-5.3.46-5.3.46-1.04.02-2.78,0-5.03-.4-1.27-.23-3.36-.63-5.86-1.84-2.65-1.3-4.37-2.82-5.07-3.51,0,0,0,0,0,0-.11-.11-.2-.2-.26-.26,0,0-.31-.31-.58-.63-1.9-2.15-5.76-9.89-4.57-21.58.21-2.15.69-5.34,1.9-9.14.1-.29.19-.58.29-.85.02-.08.02-.15,0-.22-.07-.19-.33-.29-.51-.13-3.32,2.82-8.72,8.29-12.15,16.88-.5,1.29-.94,2.53-1.29,3.76l-.02.02c-.12.38-.21.77-.31,1.13-.02.06-.04.12-.04.17-.1.31-.17.63-.23.94-.1.36-.17.71-.25,1.08-.08.36-.13.71-.21,1.06-.12.61-.21,1.23-.29,1.81,0,.06-.01.11-.02.17,0,.02,0,.04,0,.06,0,.02,0,.04,0,.06,0,.04-.01.08-.02.11,0,.02,0,.04,0,.06,0,.02,0,.04,0,.06,0,.03,0,.06,0,.09,0,.08-.02.16-.02.24,0,.04,0,.08-.01.12-.01.11-.02.21-.03.31-.04.29-.06.6-.1.88-.02.15-.04.33-.04.5-.02.17-.04.35-.04.5-.06,1.21-.08,1.96-.08,1.96-.02.31-.02.71,0,1.52v.58c.02.38.02.77.04,1.13.06.04.12.09.18.14,0,.02,0,.03,0,.05.36.27.77.57,1.23.91.01,0,.02.02.04.03.66.49,1.43,1.03,2.29,1.6.01,0,.02.02.04.02,2.89,1.98,5.31,3.32,7.15,4.32.02.01.04.02.06.03.22.12.43.23.64.34.03.02.06.03.09.05.47.25,1,.53,1.62.84.04.02.08.04.12.06.08.04.17.09.25.13,1.38.7,3.11,1.54,5.18,2.43.06.03.12.05.18.08.04.02.08.03.12.05.04.02.09.04.13.05.34.14.68.29,1.04.43,2.92,1.2,5.62,2.13,7.98,2.84-2.29,1.24-4.69,2.3-7.18,3.17-.1-.03-.21-.06-.33-.09-.03,0-.07-.02-.1-.03-.03,0-.06-.02-.09-.02-.02,0-.05-.01-.07-.02-.22-.06-.46-.13-.7-.2-.04-.01-.09-.03-.13-.04-.09-.03-.18-.05-.27-.08,0,0-.01,0-.02,0-.09-.03-.17-.05-.26-.08-.15-.04-.3-.09-.45-.14-.04-.01-.08-.03-.12-.04-.1-.03-.2-.06-.3-.09-.11-.03-.22-.07-.33-.1-.1-.03-.19-.06-.29-.09,0,0-.01,0-.02,0-.05-.01-.09-.03-.14-.04-.05-.02-.1-.03-.15-.05-.06-.02-.11-.04-.17-.06-.06-.02-.12-.04-.18-.06-.1-.03-.21-.07-.31-.1-.06-.02-.12-.04-.18-.06-.11-.04-.21-.07-.32-.11-.06-.02-.11-.04-.17-.06,0,0-.01,0-.02,0-.11-.04-.23-.08-.34-.12-.23-.08-.46-.16-.7-.24-.11-.04-.23-.08-.34-.12-.12-.04-.24-.09-.37-.13-.12-.04-.23-.09-.35-.13,0,0,0,0,0,0-.12-.04-.23-.09-.35-.13-.6-.23-1.21-.47-1.82-.72-1.94-.79-3.9-1.73-3.9-1.73-.52-.25-.83-.4-3.59-1.81-2.82-1.42-4.24-2.15-5.09-2.59-1.42-.75-1.65-.88-3.01-1.59-1.27-.63-2.11-1.08-3.21-1.59-1.94-.92-3.44-1.54-3.8-1.69-2.23-.9-4.09-1.52-5.28-1.88-1.94-.61-3.8-1.19-6.38-1.65-.77-.13-2.42-.38-4.55-.52-.61-.04-2.9-.15-5.93.06-1.15.08-2.15.19-2.94.3-1.38-1.9-2.63-3.9-3.73-5.99.11-.03.21-.05.32-.08.1-.02.2-.05.3-.07.06-.02.12-.03.18-.04.11-.03.22-.05.33-.08.05-.01.09-.02.14-.03.09-.02.18-.04.27-.06,0,0,.02,0,.03,0,.05-.01.1-.02.15-.03.17-.04.34-.08.51-.11.06-.01.13-.03.19-.04.08-.02.16-.03.23-.05.03,0,.06-.01.09-.02.11-.02.22-.04.33-.07.03,0,.06-.01.09-.02.05-.01.1-.02.16-.03.07-.01.14-.03.21-.04.1-.02.21-.04.31-.06.04,0,.09-.02.13-.02.11-.02.23-.04.34-.06.13-.02.26-.04.39-.07.09-.01.18-.03.27-.04.07-.01.14-.02.21-.03.04,0,.09-.01.13-.02.06,0,.13-.02.19-.03.06,0,.12-.02.19-.03.22-.03.43-.06.65-.09.11-.01.23-.03.34-.04.12-.01.24-.03.36-.04.08,0,.16-.02.24-.03.05,0,.1-.01.15-.02.04,0,.07,0,.11-.01.08,0,.15-.02.23-.02.08,0,.16-.02.24-.02.09,0,.18-.02.27-.02.12-.01.25-.02.37-.03.08,0,.17-.01.25-.02.06,0,.12,0,.17-.01.13,0,.27-.02.4-.03.07,0,.13,0,.2-.01.05,0,.1,0,.15,0,.08,0,.16,0,.24-.01.06,0,.12,0,.19,0,.1,0,.21-.01.31-.01.03,0,.07,0,.1,0,.01,0,.02,0,.04,0,.07,0,.13,0,.2,0,.01,0,.03,0,.04,0,.04,0,.08,0,.12,0,.53-.02,1.07-.03,1.6-.03.23,0,.47,0,.7,0,.16,0,.31,0,.47,0,.05,0,.11,0,.16,0,.09,0,.19,0,.28,0,.09,0,.18,0,.27,0,0,0,0,0,0,0,.48.02.96.05,1.45.08.08,0,.16.01.24.02.12,0,.24.02.36.03.02,0,.03,0,.05,0,.11,0,.22.02.33.03.11.01.22.02.33.03.09,0,.18.02.27.03.06,0,.12.01.18.02.1.01.2.02.3.03.05,0,.1.01.14.02.08,0,.17.02.25.03.09.01.19.02.28.04.14.02.28.04.42.06.14.02.28.04.42.06.1.01.2.03.3.05.09.01.17.03.26.04.03,0,.07.01.1.02.12.02.24.04.36.06.36.06.71.13,1.07.2.1.02.2.04.3.06.06.01.12.02.18.04.06.01.12.02.17.04.09.02.18.04.27.06.11.02.21.05.32.07.09.02.17.04.25.06.09.02.19.04.28.07.34.08.68.17,1.02.26.06.02.12.03.18.05.07.02.13.04.19.05.04.01.09.02.13.04.13.04.27.07.4.11,0,0,0,0,0,0,.04.01.09.02.13.04.06.02.12.04.18.05.1.03.2.06.3.09,3.03.96,5.9,2.19,8.68,3.55v-.58c-.02-.17-.02-.36-.02-.58,0-.19,0-.42.02-.65v-.48c0-.23.02-.5.02-.77.02-.25.02-.5.04-.73.02-.23.02-.44.04-.65.02-.23.04-.58.08-1.04.04-.4.08-.75.12-1.02,0,0,.13-1.33.36-2.63.04-.25.08-.5.08-.5,0-.06.02-.11.03-.17s.02-.11.03-.16c0-.03,0-.05.01-.08,0-.05.02-.11.03-.16,0-.03,0-.05.01-.08,2.13-11.23,7.6-19.12,9.47-21.66,1.88-2.57,4.88-6.13,9.27-9.72-5.2-.61-9.22,0-11.87.65-7.91,1.94-14.15,6.87-20.03,11.19-.31.23-.61.46-.94.69-.33.25-.65.5-.98.75-.02,0-.04.02-.04.02-1.67,1.27-3.59,2.69-6.2,4.47-.52.35-1.08.73-1.65,1.11-.17.11-.33.22-.5.33-.17.11-.34.22-.5.33-.17.11-.34.22-.5.33-.17.11-.34.22-.51.33-.17.11-.34.22-.51.32-.17.11-.34.21-.51.32-.15.09-.3.19-.45.28-.02.01-.04.02-.06.04-.17.11-.34.21-.51.31-.55.33-1.1.67-1.65.99-.09.05-.18.11-.27.16-.02.01-.04.02-.06.03-.15.09-.3.18-.46.27-.09.05-.19.11-.28.16-.27.16-.54.31-.82.47-.09.05-.17.1-.26.14-.08.05-.16.09-.24.14-.13.07-.27.15-.4.22-.19.1-.37.21-.56.31-.17.09-.34.19-.51.28-.04.02-.09.05-.13.07-.04.02-.09.05-.13.07-.09.05-.17.09-.26.14-.15.08-.31.17-.46.25-.02.01-.04.02-.06.03-.14.07-.28.15-.42.22-.24.13-.49.26-.73.38-.1.05-.2.1-.3.16-.01,0-.03.02-.04.02-.1.05-.21.11-.32.16,0,0-.02.01-.03.02-.15.08-.31.16-.46.23-.31.16-.63.32-.95.47-.14.07-.27.14-.41.2-.43.21-.86.42-1.29.63-.11.05-.22.1-.32.15-.15.07-.31.15-.46.22-.03.01-.05.02-.08.04-.34-1.2-.64-2.42-.89-3.65-.02-.08-.03-.17-.05-.25,6.14-2.92,11.2-5.94,15.28-8.65,2.59-1.77,5.03-3.56,7.39-5.3.34-.25.67-.5,1-.74.82-.61,1.63-1.21,2.43-1.8.07-.05.15-.11.22-.16.15-.11.29-.21.44-.32h0c.15-.11.29-.21.44-.32.07-.05.15-.11.22-.16.1-.08.21-.15.31-.23.1-.08.21-.15.31-.23.14-.1.28-.2.41-.3.07-.05.14-.1.21-.15.02-.01.04-.03.06-.04.07-.05.14-.1.22-.16.39-.28.78-.55,1.16-.83,10.28-7.22,19.9-12.01,34.09-8.4.35.09.7.18,1.04.27.3.08.59.17.87.26,0,0,.01,0,.02,0,.08.02.16.05.24.08,0,0,.02,0,.03,0,0,0,0,0,0,0,.03,0,.07.02.1.03.04.01.07.02.1.03.19.05.36.1.51.15.02,0,.03.01.05.02.01,0,.03,0,.04.02.02,0,.04.01.06.02.02,0,.04.01.05.02.04.01.07.03.1.04.07.02.13.05.19.07.02,0,.05.02.07.03.09.04.18.07.26.1.03.01.06.02.1.04,0,0,0,0,0,0,.15.05.34.12.54.2.02,0,.03.01.05.02.27.1.55.21.76.3.01,0,.02,0,.03.01.08.03.17.07.25.11.02.01.04.02.06.03.23.11.43.26.59.44,0,0,0,0,0,0h0c.33.38.49.88.44,1.38,0,.02,0,.04,0,.06,0,.02,0,.05-.01.08,0,0,0,0,0,0,0,.03-.01.07-.02.1,0,.04-.02.08-.03.12-.08.25-.21.5-.4.71l-.17.17s-.05.06-.08.1c0,0,0,0,0,0-.21.25-.46.54-.53.63-.2.24-.39.46-.54.66,0,0-.01.01-.02.02-.14.17-.26.32-.36.46,0,0,0,0,0,0-.01.02-.03.04-.04.05-.01.03-.17.22-.37.49-.08.11-.18.23-.27.36-.11.16-.23.32-.34.49-.64.93-1.24,1.85-1.83,2.93-.14.24-.27.49-.4.74-.03.06-.06.11-.09.17-.02.05-.05.09-.07.14-.03.05-.05.1-.08.16-.03.07-.07.13-.1.2-.1.2-.19.4-.29.6-.03.06-.05.11-.08.17-.02.05-.05.1-.07.15-1.47,3.16-2.34,6.53-2.64,10.01,0,.05,0,.1-.01.15-.1,1.25-.13,2.51-.09,3.78.18,3.7.71,7.36,2.03,10.44.02.05.04.1.06.15.06.15.13.29.2.43.75,1.59,1.73,3.01,2.99,4.19,0,0,0,0,0,0,0,0,0,0,0,0,1.05.97,2.29,1.77,3.77,2.36,1.11.46,2.29.83,3.48,1.08.05.01.09.02.14.02,0,0,0,0,0,0,.03,0,.06,0,.09.02.29.06.58.12.86.15.08.02.16.03.23.04,0,0,0,0,0,0,.04,0,.08.01.11.02.04,0,.07.01.1.02h0c.07.01.12.02.18.04,0,0,.11.01.26.03,0,0,0,0,0,0,.12.01.26.03.39.05.59.08,1.2.13,1.79.17.06,0,.12,0,.18.01,2.4.14,4.58,0,4.58,0,0,0,.01,0,.03-.01.02,0,.04,0,.07,0,.15,0,.29-.02.44-.02.02,0,.03,0,.05,0,.61-.04,1.24-.09,1.86-.16.41-.04.81-.09,1.22-.14h.1c.77-.1,1.52-.21,2.28-.33.05,0,.1-.02.16-.03,0,0,0,0,0,0,.05,0,.1-.02.14-.03h.04c.06-.01.13-.02.19-.04.08-.02.17-.03.25-.04,0,0,0,0,.01,0,.2-.03.4-.07.59-.1Z" fill="#fff" stroke-width="0"/><path d="M60,35.62c-4.4,3.59-7.39,7.14-9.27,9.72-1.86,2.53-7.33,10.43-9.47,21.66,0,.03,0,.05-.01.08,0,.05-.02.11-.03.16,0,.03,0,.05-.01.08,0,.05-.02.11-.03.16s-.02.11-.03.17c0,0-.04.25-.08.5-.23,1.31-.36,2.63-.36,2.63-.04.27-.08.61-.12,1.02-.04.46-.06.81-.08,1.04-.02.21-.02.42-.04.65-.02.23-.02.48-.04.73,0,.27-.02.54-.02.77v.48c-.02.23-.02.46-.02.65,0,.21,0,.4.02.58v.58c-2.78-1.36-5.65-2.59-8.68-3.55-.1-.03-.2-.06-.3-.09-.06-.02-.12-.04-.18-.05-.04-.01-.09-.03-.13-.04,0,0,0,0,0,0-.13-.04-.27-.08-.4-.11-.04-.01-.09-.02-.13-.04-.07-.02-.13-.04-.19-.05-.06-.02-.12-.03-.18-.05-.34-.09-.68-.18-1.02-.26-.09-.02-.19-.04-.28-.07-.08-.02-.17-.04-.25-.06-.11-.02-.21-.05-.32-.07-.09-.02-.18-.04-.27-.06-.06-.01-.12-.02-.17-.04-.06-.01-.12-.02-.18-.04-.1-.02-.2-.04-.3-.06-.36-.07-.71-.14-1.07-.2-.12-.02-.24-.04-.36-.06-.03,0-.07-.01-.1-.02-.09-.01-.17-.03-.26-.04-.1-.02-.2-.03-.3-.05-.14-.02-.28-.04-.42-.06-.14-.02-.28-.04-.42-.06-.09-.01-.19-.02-.28-.04-.08-.01-.17-.02-.25-.03-.05,0-.1-.01-.14-.02-.1-.01-.2-.02-.3-.03-.06,0-.12-.01-.18-.02-.09,0-.18-.02-.27-.03-.11-.01-.22-.02-.33-.03-.11-.01-.22-.02-.33-.03-.02,0-.03,0-.05,0-.12-.01-.24-.02-.36-.03-.08,0-.16-.01-.24-.02-.48-.03-.96-.06-1.45-.08,0,0,0,0,0,0-.09,0-.18,0-.27,0-.09,0-.19,0-.28,0-.05,0-.11,0-.16,0-.16,0-.31,0-.47,0-.23,0-.47,0-.7,0-.53,0-1.07,0-1.6.03-.04,0-.08,0-.12,0-.01,0-.03,0-.04,0-.07,0-.13,0-.2,0-.01,0-.02,0-.04,0-.03,0-.07,0-.1,0-.1,0-.21,0-.31.01-.06,0-.12,0-.19,0-.08,0-.16,0-.24.01-.05,0-.1,0-.15,0-.07,0-.13,0-.2.01-.13,0-.27.02-.4.03-.06,0-.12,0-.17.01-.08,0-.17.01-.25.02-.12,0-.25.02-.37.03-.09,0-.18.02-.27.02-.08,0-.16.02-.24.02-.08,0-.15.02-.23.02-.04,0-.07,0-.11.01-.05,0-.1.01-.15.02-.08,0-.16.02-.24.03-.12.01-.24.03-.36.04-.11.01-.23.03-.34.04-.22.03-.43.06-.65.09-.06,0-.12.02-.19.03-.06,0-.13.02-.19.03-.04,0-.09.01-.13.02-.07.01-.14.02-.21.03-.09.01-.18.03-.27.04-.13.02-.26.04-.39.07-.11.02-.23.04-.34.06-.04,0-.09.02-.13.02-.1.02-.21.04-.31.06-.07.01-.14.03-.21.04-.05,0-.1.02-.16.03-.03,0-.06.01-.09.02-.11.02-.22.04-.33.07-.03,0-.06.01-.09.02-.08.02-.16.03-.23.05-.06.01-.13.03-.19.04-.17.04-.34.07-.51.11-.05.01-.1.02-.15.03,0,0-.02,0-.03,0-.09.02-.18.04-.27.06-.05.01-.09.02-.14.03-.11.03-.22.05-.33.08-.06.01-.12.03-.18.04-.1.02-.2.05-.3.07-.11.03-.21.05-.32.08-1.61-3.05-2.92-6.28-3.88-9.66.03-.01.05-.02.08-.04.15-.07.31-.14.46-.22.11-.05.22-.1.32-.15.43-.21.86-.41,1.29-.63.14-.07.28-.14.41-.2.32-.16.63-.32.95-.47.15-.08.31-.16.46-.23.01,0,.02-.01.03-.02.11-.05.21-.11.32-.16.01,0,.03-.01.04-.02.1-.05.2-.1.3-.16.24-.13.49-.25.73-.38.14-.07.28-.15.42-.22.02-.01.04-.02.06-.03.15-.08.31-.16.46-.25.09-.05.17-.09.26-.14.04-.02.09-.05.13-.07.04-.02.09-.05.13-.07.17-.09.34-.19.51-.28.19-.1.37-.21.56-.31.13-.07.27-.15.4-.22.08-.05.16-.09.24-.14.09-.05.17-.1.26-.14.27-.15.55-.31.82-.47.09-.05.19-.11.28-.16.15-.09.3-.18.46-.27.02-.01.04-.02.06-.03.09-.05.18-.1.27-.16.55-.33,1.1-.66,1.65-.99.17-.1.34-.21.51-.31.02-.01.04-.02.06-.04.15-.09.3-.19.45-.28.17-.11.34-.21.51-.32.17-.11.34-.21.51-.32.17-.11.34-.22.51-.33.17-.11.34-.22.5-.33.17-.11.34-.22.5-.33.17-.11.34-.22.5-.33.58-.38,1.13-.77,1.65-1.11,2.61-1.79,4.53-3.21,6.2-4.47,0,0,.02-.02.04-.02.33-.25.65-.5.98-.75.33-.23.63-.46.94-.69,5.88-4.32,12.12-9.26,20.03-11.19,2.65-.65,6.66-1.27,11.87-.65Z" fill="#0ca3dd" stroke-width="0"/></svg>