<?xml version="1.0" encoding="UTF-8"?><svg id="Layer_2" xmlns="http://www.w3.org/2000/svg" viewBox="0 0 958.02 88.81"><g id="Layer_1-2"><path d="M.98,71.41l-.72-3.36c-1.08-4.56,1.32-7.8,5.04-7.8,3.24,0,5.04,2.28,5.64,5.28l.72,3.6c1.44,7.2,6.12,9.72,11.64,9.72,6.48,0,12-3.48,12-11.52,0-6-3.12-10.32-6.24-12.84l-15.6-12.96c-5.04-4.08-10.92-9.48-10.92-20.04C2.54,8.76,11.18,0,24.74,0s21.6,9.48,21.6,18v.72c0,2.52-1.8,4.92-5.28,4.92s-4.8-2.4-5.64-5.16l-.48-1.2c-1.44-4.8-5.28-7.32-10.2-7.32-6.36,0-11.16,3.96-11.16,11.16,0,5.16,2.52,8.52,5.16,10.68l19.44,16.08c2.4,2.04,8.16,7.68,8.16,18.72,0,13.68-9,22.2-22.92,22.2S3.02,80.05.98,71.41Z" fill="#fff" stroke-width="0"/><path d="M59.54,21.84c0-12.48,9.12-21.84,23.28-21.84s23.28,9.36,23.28,21.84v45.24c0,12.36-9.12,21.72-23.28,21.72s-23.28-9.36-23.28-21.72V21.84ZM70.82,22.44v43.92c0,8.52,6,12.24,12,12.24s12-3.72,12-12.24V22.44c0-8.4-6-12.24-12-12.24s-12,3.84-12,12.24Z" fill="#fff" stroke-width="0"/><path d="M168.39,66.73c0,12.48-8.88,22.08-23.4,22.08s-23.4-9.6-23.4-22.08V5.52c0-2.52,1.92-5.52,5.64-5.52s5.64,3,5.64,5.52v60.6c0,8.64,5.4,12.48,12.12,12.48s12.12-3.84,12.12-12.48V5.52c0-2.52,1.8-5.52,5.52-5.52,3.96,0,5.76,3,5.76,5.52v61.21Z" fill="#fff" stroke-width="0"/><path d="M221.19,1.2c3.36,0,5.28,2.4,5.28,5.04s-1.92,5.16-5.28,5.16h-13.8v71.89c0,2.52-1.92,5.52-5.76,5.52-3.6,0-5.52-3-5.52-5.52V11.4h-13.8c-3.36,0-5.28-2.52-5.28-5.04,0-2.76,1.92-5.16,5.28-5.16h38.88Z" fill="#fff" stroke-width="0"/><path d="M284.31,83.29c0,2.52-1.92,5.52-5.64,5.52s-5.64-3-5.64-5.52v-34.2h-26.04v34.2c0,2.52-1.92,5.52-5.76,5.52-3.6,0-5.52-3-5.52-5.52V5.52c0-2.52,1.92-5.52,5.52-5.52,3.84,0,5.76,3,5.76,5.52v33.24h26.04V5.52c0-2.52,1.92-5.52,5.64-5.52s5.64,3,5.64,5.52v77.77Z" fill="#fff" stroke-width="0"/><path d="M298.59,71.41l-.72-3.36c-1.08-4.56,1.32-7.8,5.04-7.8,3.24,0,5.04,2.28,5.64,5.28l.72,3.6c1.44,7.2,6.12,9.72,11.64,9.72,6.48,0,12-3.48,12-11.52,0-6-3.12-10.32-6.24-12.84l-15.6-12.96c-5.04-4.08-10.92-9.48-10.92-20.04,0-12.72,8.64-21.48,22.2-21.48s21.6,9.48,21.6,18v.72c0,2.52-1.8,4.92-5.28,4.92s-4.8-2.4-5.64-5.16l-.48-1.2c-1.44-4.8-5.28-7.32-10.2-7.32-6.36,0-11.16,3.96-11.16,11.16,0,5.16,2.52,8.52,5.16,10.68l19.44,16.08c2.4,2.04,8.16,7.68,8.16,18.72,0,13.68-9,22.2-22.92,22.2s-20.4-8.76-22.44-17.4Z" fill="#fff" stroke-width="0"/><path d="M369.88,83.29c0,2.52-1.92,5.52-5.76,5.52-3.6,0-5.52-3-5.52-5.52V5.52c0-2.52,1.92-5.52,5.52-5.52,3.84,0,5.76,3,5.76,5.52v77.77Z" fill="#fff" stroke-width="0"/><path d="M394.24,87.61c-3.84,0-5.76-2.88-5.76-5.4V6.6c0-2.52,1.92-5.4,5.76-5.4h17.52c13.56,0,23.28,9.36,23.28,21.84v42.72c0,12.48-9.72,21.84-23.28,21.84h-17.52ZM411.76,77.41c6,0,12-3.72,12-12.24V23.76c0-8.52-6-12.36-12-12.36h-12v66.01h12Z" fill="#fff" stroke-width="0"/><path d="M451.12,6.6c0-2.52,1.92-5.4,5.76-5.4h30.72c3.48,0,5.4,2.4,5.4,5.04s-1.92,5.16-5.4,5.16h-25.2v27.36h18.72c3.48,0,5.4,2.52,5.4,5.16s-1.92,5.04-5.4,5.04h-18.72v28.44h25.2c3.48,0,5.4,2.52,5.4,5.04,0,2.76-1.92,5.16-5.4,5.16h-30.72c-3.84,0-5.76-2.88-5.76-5.4V6.6Z" fill="#fff" stroke-width="0"/><path d="M566.93,63.61c0-2.52,1.8-5.52,5.52-5.52s5.76,3,5.76,5.52v3.48c0,12.36-9.24,21.72-23.4,21.72s-23.28-9.36-23.28-21.72V21.84c0-12.48,9.12-21.84,23.4-21.84s21.96,9.48,21.96,17.88v.72c0,2.52-2.04,5.04-5.52,5.04s-5.04-2.52-5.88-5.28l-.36-1.2c-1.32-4.56-4.92-6.96-10.08-6.96-6.48,0-12.24,3.96-12.24,12.24v43.92c0,8.52,6,12.24,12,12.24s12.12-3.72,12.12-12.24v-2.76Z" fill="#fff" stroke-width="0"/><path d="M597.17,87.61c-3.6,0-5.52-2.64-5.52-5.28V5.52c0-2.52,1.92-5.52,5.52-5.52,3.84,0,5.76,3,5.76,5.52v71.89h23.04c3.36,0,5.28,2.52,5.28,5.04,0,2.76-1.92,5.16-5.28,5.16h-28.8Z" fill="#fff" stroke-width="0"/><path d="M654.05,83.29c0,2.52-1.92,5.52-5.76,5.52-3.6,0-5.52-3-5.52-5.52V5.52c0-2.52,1.92-5.52,5.52-5.52,3.84,0,5.76,3,5.76,5.52v77.77Z" fill="#fff" stroke-width="0"/><path d="M725.93,63.73c.12-19.8.24-23.52,1.08-37.2h-.6c-1.32,5.16-6.12,17.88-8.04,22.92l-7.68,21.24c-1.44,3.6-3.84,4.08-5.88,4.08-1.92,0-4.44-.48-5.76-4.08l-7.8-21.24c-.72-2.04-6.84-18-8.04-22.92h-.6c.96,12.84,1.2,24.6,1.2,37.2l.12,19.56c0,2.52-1.8,5.52-5.76,5.52-3.72,0-5.52-3-5.52-5.52V7.32c0-4.56,1.92-7.32,5.76-7.32,3.12,0,5.52,1.92,6.96,5.52l19.08,51.12h.72l19.2-51.12c1.44-3.6,3.72-5.52,6.84-5.52,3.96,0,5.88,2.76,5.88,7.32v75.97c0,2.52-1.92,5.52-5.76,5.52-3.6,0-5.52-3-5.52-5.52l.12-19.56Z" fill="#fff" stroke-width="0"/><path d="M761.45,87.61c-3.84,0-5.76-2.88-5.76-5.4V6.6c0-2.52,1.92-5.4,5.76-5.4h13.44c15.6,0,26.64,9.24,26.64,21.48v1.08c0,7.44-4.44,14.88-12.72,18.12,10.44,4.2,13.92,12.48,13.92,20.52v.96c0,13.92-10.92,24.24-26.52,24.24h-14.76ZM774.9,38.04c7.8,0,15.36-3.96,15.36-12.96v-.72c0-9-7.56-12.96-15.36-12.96h-8.04v26.64h8.04ZM776.21,77.41c7.8,0,15.24-4.92,15.24-14.76v-.72c0-9.84-7.56-13.56-15.24-13.56h-9.36v29.04h9.36Z" fill="#fff" stroke-width="0"/><path d="M828.3,83.29c0,2.52-1.92,5.52-5.76,5.52-3.6,0-5.52-3-5.52-5.52V5.52c0-2.52,1.92-5.52,5.52-5.52,3.84,0,5.76,3,5.76,5.52v77.77Z" fill="#fff" stroke-width="0"/><path d="M884.1,5.52c0-2.52,1.92-5.52,5.76-5.52,3.6,0,5.52,3,5.52,5.52v75.97c0,4.44-1.92,7.32-5.64,7.32-2.76,0-5.04-1.56-6.6-5.28l-25.56-56.04h-.6c.72,9.6,1.2,19.08,1.2,27.12v28.68c0,2.52-1.92,5.52-5.76,5.52-3.6,0-5.52-3-5.52-5.52V7.32c0-4.56,1.92-7.32,5.64-7.32,2.76,0,4.92,1.56,6.6,5.52l25.56,55.68h.6c-.72-9.6-1.2-18.72-1.2-26.76V5.52Z" fill="#fff" stroke-width="0"/><path d="M952.5,40.8c3.6,0,5.52,2.64,5.52,5.28v21c0,12.36-9.12,21.72-23.16,21.72s-23.4-9.36-23.4-21.72V21.84c0-12.48,9-21.84,23.16-21.84s22.2,9.48,22.2,17.88v.72c0,2.52-1.92,5.04-5.64,5.04s-4.8-2.4-5.64-5.28l-.36-1.2c-1.44-4.44-5.04-6.96-10.32-6.96-6.12,0-12.12,3.96-12.12,12.36v43.68c0,8.4,5.88,12.36,12,12.36s12-3.96,12-12.36v-15.36h-8.64c-2.88-.12-4.68-2.4-4.68-5.04s1.92-5.04,5.28-5.04h13.8Z" fill="#fff" stroke-width="0"/></g></svg>