<?xml version="1.0" encoding="UTF-8"?><svg id="Layer_2" xmlns="http://www.w3.org/2000/svg" viewBox="0 0 377.55 35"><g id="Layer_1-2"><g><path d="M.39,28.14l-.28-1.32c-.43-1.8,.52-3.07,1.99-3.07,1.28,0,1.99,.9,2.22,2.08l.28,1.42c.57,2.84,2.41,3.83,4.59,3.83,2.55,0,4.73-1.37,4.73-4.54,0-2.36-1.23-4.07-2.46-5.06l-6.15-5.11c-1.99-1.61-4.3-3.74-4.3-7.9C1,3.45,4.41,0,9.75,0s8.51,3.74,8.51,7.09v.28c0,.99-.71,1.94-2.08,1.94s-1.89-.95-2.22-2.03l-.19-.47c-.57-1.89-2.08-2.88-4.02-2.88-2.51,0-4.4,1.56-4.4,4.4,0,2.03,.99,3.36,2.03,4.21l7.66,6.34c.95,.8,3.22,3.03,3.22,7.38,0,5.39-3.55,8.75-9.03,8.75S1.19,31.55,.39,28.14Z" fill="#f7f7f7"/><path d="M23.47,8.61c0-4.92,3.59-8.61,9.18-8.61s9.18,3.69,9.18,8.61V26.44c0,4.87-3.59,8.56-9.18,8.56s-9.18-3.69-9.18-8.56V8.61Zm4.45,.24V26.16c0,3.36,2.36,4.82,4.73,4.82s4.73-1.47,4.73-4.82V8.84c0-3.31-2.36-4.82-4.73-4.82s-4.73,1.51-4.73,4.82Z" fill="#f7f7f7"/><path d="M66.36,26.3c0,4.92-3.5,8.7-9.22,8.7s-9.22-3.78-9.22-8.7V2.18c0-.99,.76-2.18,2.22-2.18s2.22,1.18,2.22,2.18V26.06c0,3.4,2.13,4.92,4.78,4.92s4.78-1.51,4.78-4.92V2.18c0-.99,.71-2.18,2.18-2.18,1.56,0,2.27,1.18,2.27,2.18V26.3Z" fill="#f7f7f7"/><path d="M87.17,.47c1.32,0,2.08,.95,2.08,1.99s-.76,2.03-2.08,2.03h-5.44v28.33c0,.99-.76,2.18-2.27,2.18-1.42,0-2.18-1.18-2.18-2.18V4.49h-5.44c-1.32,0-2.08-.99-2.08-1.99,0-1.09,.76-2.03,2.08-2.03h15.32Z" fill="#f7f7f7"/><path d="M112.05,32.82c0,.99-.76,2.18-2.22,2.18s-2.22-1.18-2.22-2.18v-13.48h-10.26v13.48c0,.99-.76,2.18-2.27,2.18-1.42,0-2.18-1.18-2.18-2.18V2.18c0-.99,.76-2.18,2.18-2.18,1.51,0,2.27,1.18,2.27,2.18V15.28h10.26V2.18c0-.99,.76-2.18,2.22-2.18s2.22,1.18,2.22,2.18v30.65Z" fill="#f7f7f7"/><path d="M117.67,28.14l-.28-1.32c-.43-1.8,.52-3.07,1.99-3.07,1.28,0,1.99,.9,2.22,2.08l.28,1.42c.57,2.84,2.41,3.83,4.59,3.83,2.55,0,4.73-1.37,4.73-4.54,0-2.36-1.23-4.07-2.46-5.06l-6.15-5.11c-1.99-1.61-4.3-3.74-4.3-7.9,0-5.01,3.41-8.47,8.75-8.47s8.51,3.74,8.51,7.09v.28c0,.99-.71,1.94-2.08,1.94s-1.89-.95-2.22-2.03l-.19-.47c-.57-1.89-2.08-2.88-4.02-2.88-2.51,0-4.4,1.56-4.4,4.4,0,2.03,.99,3.36,2.03,4.21l7.66,6.34c.95,.8,3.22,3.03,3.22,7.38,0,5.39-3.55,8.75-9.03,8.75s-8.04-3.45-8.84-6.86Z" fill="#f7f7f7"/><path d="M145.77,32.82c0,.99-.76,2.18-2.27,2.18-1.42,0-2.18-1.18-2.18-2.18V2.18c0-.99,.76-2.18,2.18-2.18,1.51,0,2.27,1.18,2.27,2.18v30.65Z" fill="#f7f7f7"/><path d="M155.37,34.53c-1.51,0-2.27-1.14-2.27-2.13V2.6c0-.99,.76-2.13,2.27-2.13h6.91c5.34,0,9.18,3.69,9.18,8.61V25.92c0,4.92-3.83,8.61-9.18,8.61h-6.91Zm6.91-4.02c2.36,0,4.73-1.47,4.73-4.82V9.37c0-3.36-2.36-4.87-4.73-4.87h-4.73V30.51h4.73Z" fill="#f7f7f7"/><path d="M177.78,2.6c0-.99,.76-2.13,2.27-2.13h12.11c1.37,0,2.13,.95,2.13,1.99s-.76,2.03-2.13,2.03h-9.93V15.28h7.38c1.37,0,2.13,.99,2.13,2.03s-.76,1.99-2.13,1.99h-7.38v11.21h9.93c1.37,0,2.13,.99,2.13,1.99,0,1.09-.76,2.03-2.13,2.03h-12.11c-1.51,0-2.27-1.14-2.27-2.13V2.6Z" fill="#f7f7f7"/><path d="M223.42,25.07c0-.99,.71-2.18,2.18-2.18s2.27,1.18,2.27,2.18v1.37c0,4.87-3.64,8.56-9.22,8.56s-9.18-3.69-9.18-8.56V8.61c0-4.92,3.59-8.61,9.22-8.61s8.66,3.74,8.66,7.05v.28c0,.99-.8,1.99-2.18,1.99s-1.99-.99-2.32-2.08l-.14-.47c-.52-1.8-1.94-2.74-3.97-2.74-2.55,0-4.82,1.56-4.82,4.82V26.16c0,3.36,2.36,4.82,4.73,4.82s4.78-1.47,4.78-4.82v-1.09Z" fill="#f7f7f7"/><path d="M235.34,34.53c-1.42,0-2.18-1.04-2.18-2.08V2.18c0-.99,.76-2.18,2.18-2.18,1.51,0,2.27,1.18,2.27,2.18V30.51h9.08c1.32,0,2.08,.99,2.08,1.99,0,1.09-.76,2.03-2.08,2.03h-11.35Z" fill="#f7f7f7"/><path d="M257.76,32.82c0,.99-.76,2.18-2.27,2.18-1.42,0-2.18-1.18-2.18-2.18V2.18c0-.99,.76-2.18,2.18-2.18,1.51,0,2.27,1.18,2.27,2.18v30.65Z" fill="#f7f7f7"/><path d="M286.09,25.11c.05-7.8,.09-9.27,.43-14.66h-.24c-.52,2.03-2.41,7.05-3.17,9.03l-3.03,8.37c-.57,1.42-1.51,1.61-2.32,1.61-.76,0-1.75-.19-2.27-1.61l-3.07-8.37c-.28-.8-2.7-7.09-3.17-9.03h-.24c.38,5.06,.47,9.7,.47,14.66l.05,7.71c0,.99-.71,2.18-2.27,2.18-1.47,0-2.18-1.18-2.18-2.18V2.88c0-1.8,.76-2.88,2.27-2.88,1.23,0,2.18,.76,2.74,2.18l7.52,20.15h.28l7.57-20.15c.57-1.42,1.47-2.18,2.7-2.18,1.56,0,2.32,1.09,2.32,2.88v29.94c0,.99-.76,2.18-2.27,2.18-1.42,0-2.18-1.18-2.18-2.18l.05-7.71Z" fill="#f7f7f7"/><path d="M300.08,34.53c-1.51,0-2.27-1.14-2.27-2.13V2.6c0-.99,.76-2.13,2.27-2.13h5.3c6.15,0,10.5,3.64,10.5,8.47v.43c0,2.93-1.75,5.86-5.01,7.14,4.11,1.66,5.49,4.92,5.49,8.09v.38c0,5.49-4.3,9.55-10.45,9.55h-5.82Zm5.3-19.53c3.07,0,6.05-1.56,6.05-5.11v-.28c0-3.55-2.98-5.11-6.05-5.11h-3.17V14.99h3.17Zm.52,15.51c3.07,0,6.01-1.94,6.01-5.82v-.28c0-3.88-2.98-5.34-6.01-5.34h-3.69v11.45h3.69Z" fill="#f7f7f7"/><path d="M326.43,32.82c0,.99-.76,2.18-2.27,2.18-1.42,0-2.18-1.18-2.18-2.18V2.18c0-.99,.76-2.18,2.18-2.18,1.51,0,2.27,1.18,2.27,2.18v30.65Z" fill="#f7f7f7"/><path d="M348.42,2.18c0-.99,.76-2.18,2.27-2.18,1.42,0,2.18,1.18,2.18,2.18v29.94c0,1.75-.76,2.88-2.22,2.88-1.09,0-1.99-.62-2.6-2.08l-10.07-22.09h-.24c.28,3.78,.47,7.52,.47,10.69v11.3c0,.99-.76,2.18-2.27,2.18-1.42,0-2.18-1.18-2.18-2.18V2.88c0-1.8,.76-2.88,2.22-2.88,1.09,0,1.94,.62,2.6,2.18l10.07,21.95h.24c-.28-3.78-.47-7.38-.47-10.55V2.18Z" fill="#f7f7f7"/><path d="M375.37,16.08c1.42,0,2.18,1.04,2.18,2.08v8.28c0,4.87-3.59,8.56-9.13,8.56s-9.22-3.69-9.22-8.56V8.61c0-4.92,3.55-8.61,9.13-8.61s8.75,3.74,8.75,7.05v.28c0,.99-.76,1.99-2.22,1.99s-1.89-.95-2.22-2.08l-.14-.47c-.57-1.75-1.99-2.74-4.07-2.74-2.41,0-4.78,1.56-4.78,4.87V26.11c0,3.31,2.32,4.87,4.73,4.87s4.73-1.56,4.73-4.87v-6.05h-3.41c-1.14-.05-1.84-.95-1.84-1.99s.76-1.99,2.08-1.99h5.44Z" fill="#f7f7f7"/></g></g></svg>