<?xml version="1.0" encoding="UTF-8"?><svg id="Layer_2" xmlns="http://www.w3.org/2000/svg" viewBox="0 0 466 466"><g id="Layer_2-2"><g id="Layer_3"><g><path d="M466,233c0,47.28-14.09,91.28-38.28,128.02-1.82,.34-3.78,.69-5.56,.99-.06,0-.09,0-.15,.03-.48,.09-.97,.15-1.45,.21-3.58,.58-7.07,1.11-10.62,1.55-.15,0-.3,.03-.45,.03-5.5,.7-11.13,1.18-16.53,1.51-.28,.02-.44,.03-.48,.03,0,0-16.24,.99-30.27-.82-1.48-.19-3.03-.42-3.03-.42-.76-.11-1.7-.27-2.94-.46-1.37-.21-2.73-.45-4.03-.75-.37-.06-.7-.13-1.03-.22-5.53-1.15-10.95-2.81-16.11-4.97-31.89-12.64-40.4-46.53-42.09-81.42-.65-22.49,3.45-44.49,12.77-64.59,1.66-3.77,3.49-7.29,5.4-10.8,3.22-5.86,6.5-10.79,10.09-15.8,1.41-1.97,2.8-3.79,2.92-3.94,.99-1.3,2.5-3.23,4.43-5.54,.37-.43,1.79-2.13,2.9-3.37,.23-.26,.48-.52,.74-.81,3.89-4.14,2.64-10.92-2.51-13.33-.58-.27-1.12-.51-1.62-.72-1.99-.84-5.19-2.01-6.76-2.58-1.42-.52-3.5-1.41-6.22-2.15-.33-.09-.73-.22-1.06-.34-3.25-1.03-6.58-1.97-10.1-2.88-95.51-24.29-146.33,33.5-226.74,88.67-19.36,12.86-43.39,27.16-72.66,40.98-2.99-14.91-4.56-30.32-4.56-46.11C0,104.32,104.32,0,233,0s233,104.32,233,233Z" fill="#ff7bac"/><path d="M427.72,361.02c-.65,.99-1.31,1.97-1.98,2.95-.56,.82-1.12,1.64-1.69,2.46-.32,.46-.65,.91-.97,1.37-.5,.7-.99,1.39-1.5,2.08-.52,.72-1.05,1.44-1.59,2.15-.46,.64-.94,1.27-1.42,1.89-.46,.62-.93,1.23-1.41,1.83-1.23,1.59-2.48,3.17-3.76,4.72-.37,.09-.94,.24-1.64,.41-6.02,1.48-11.04,2.48-13.07,2.85-11.91,2.17-24.56,2.19-24.56,2.19-4.85,.01-12.96-.01-23.32-1.92-5.86-1.08-15.63-2.95-27.2-8.57-14.27-6.95-22.75-15.48-24.72-17.51,0,0-1.38-1.42-2.66-2.88-8.8-10.02-26.73-45.89-21.23-100.07,1.01-9.94,3.24-24.75,8.82-42.39,.46-1.34,.88-2.64,1.34-3.89,.51-1.45-1.21-2.63-2.4-1.63-15.34,13.07-40.42,38.45-56.28,78.23-2.36,5.95-4.37,11.77-6.03,17.44,0,.03-.03,.09-.03,.12-.52,1.76-1,3.52-1.46,5.25-.06,.24-.15,.51-.21,.79-.37,1.45-.73,2.91-1.06,4.33-.43,1.7-.79,3.37-1.13,5.04-.36,1.63-.66,3.27-.97,4.91-.51,2.85-.97,5.64-1.33,8.34-.12,.79-.24,1.61-.33,2.39-.16,1.19-.31,2.37-.43,3.52-.15,1.4-.27,2.76-.39,4.1-.07,.78-.15,1.57-.21,2.36-.06,.78-.12,1.56-.16,2.34-.28,5.55-.39,9-.39,9-.03,1.5-.02,3.36,0,7.07,0,1.08,0,1.8,.03,2.7,.06,1.79,.12,3.51,.21,5.21,4.03,3.07,9.6,7.19,16.41,11.8,15.54,10.53,28.07,17.24,37,22,8.28,4.41,21.59,11.45,40,19,14.73,6.04,28.19,10.55,39.76,13.94-.79,.44-1.58,.87-2.38,1.3-.55,.3-1.1,.59-1.65,.88-.67,.36-1.35,.71-2.03,1.06-.47,.25-.95,.49-1.43,.74-.62,.31-1.23,.62-1.85,.92-.36,.18-.73,.36-1.1,.55-.92,.45-1.85,.89-2.78,1.33-.69,.33-1.38,.65-2.07,.97-1.06,.49-2.12,.97-3.2,1.44-.6,.27-1.19,.53-1.8,.79-.1,.05-.2,.09-.31,.14-.81,.35-1.62,.69-2.44,1.03-1.1,.47-2.21,.92-3.33,1.36-1.11,.45-2.23,.89-3.35,1.31-.84,.32-1.68,.64-2.52,.94-.41,.15-.82,.3-1.23,.45-8.96-2.44-27.29-7.71-45.29-15.15-8.92-3.69-18-8-18-8-2.45-1.16-3.9-1.88-16.67-8.37-13.09-6.65-19.72-10.02-23.59-12.05-6.59-3.44-7.67-4.09-14.01-7.36-5.83-3.01-9.74-5.03-14.8-7.43-8.98-4.26-15.92-7.1-17.68-7.82-10.32-4.2-18.96-7.06-24.41-8.76-9.05-2.83-17.66-5.51-29.62-7.58-3.57-.62-11.22-1.83-21.08-2.43-2.81-.17-13.41-.75-27.52,.25-6.35,.45-11.72,1.1-15.74,1.67-.82-1.14-1.63-2.28-2.44-3.44-.64-.93-1.28-1.87-1.92-2.81-.14-.22-.3-.45-.45-.68-.58-.88-1.16-1.76-1.74-2.64-.14-.23-.29-.45-.44-.68-1.41-2.2-2.78-4.42-4.12-6.66-.63-1.05-1.25-2.11-1.87-3.18-.06-.11-.12-.21-.18-.32-.68-1.18-1.34-2.36-1.99-3.54-.65-1.19-1.3-2.38-1.93-3.58,39.93-10.61,82.39-11.15,122.17,.99,14.13,4.39,27.41,10.1,40.27,16.46-.02-.78-.03-1.69-.04-2.7-.01-.82-.02-1.71-.02-2.67s0-1.95,.02-3.02c.01-.73,.02-1.47,.04-2.2,.02-1.13,.06-2.32,.11-3.56,.05-1.16,.1-2.31,.16-3.46,.06-1.01,.12-2.01,.19-3.01,.07-1.02,.18-2.63,.37-4.75,.17-1.92,.34-3.54,.47-4.74,0,0,.68-6.17,1.69-12.22,.19-1.14,.4-2.32,.4-2.32,.17-1.02,.36-2.03,.56-3.04,9.86-52.03,35.17-88.63,43.81-100.35,8.78-11.92,22.61-28.4,43-45-24.1-2.86-42.73,0-55,3-36.67,8.97-65.61,31.85-92.77,51.85-1.45,1.09-2.91,2.18-4.38,3.26-1.49,1.11-3,2.24-4.56,3.41-.07,.05-.14,.1-.21,.16-7.73,5.79-16.59,12.39-28.67,20.65-2.44,1.67-5,3.4-7.72,5.21-24.85,16.55-50.42,30.88-77.75,43.62-.23-.79-.45-1.59-.66-2.38-.2-.69-.38-1.39-.56-2.08-1.19-4.48-2.24-9.01-3.16-13.59,29.27-13.82,53.3-28.12,72.66-40.98,80.41-55.17,131.23-112.96,226.74-88.67,3.52,.91,6.85,1.85,10.1,2.88,.33,.12,.73,.25,1.06,.34,2.72,.74,4.8,1.63,6.22,2.15,1.57,.57,4.77,1.74,6.76,2.58,.5,.21,1.04,.45,1.62,.72,5.15,2.41,6.4,9.19,2.51,13.33-.26,.29-.51,.55-.74,.81-1.11,1.24-2.53,2.94-2.9,3.37-1.93,2.31-3.44,4.24-4.43,5.54-.12,.15-1.51,1.97-2.92,3.94-3.59,5.01-6.87,9.94-10.09,15.8-1.91,3.51-3.74,7.03-5.4,10.8-9.32,20.1-13.42,42.1-12.77,64.59,1.69,34.89,10.2,68.78,42.09,81.42,5.16,2.16,10.58,3.82,16.11,4.97,.33,.09,.66,.16,1.03,.22,1.3,.3,2.66,.54,4.03,.75,1.24,.19,2.18,.35,2.94,.46,0,0,1.55,.23,3.03,.42,14.03,1.81,30.27,.82,30.27,.82,.04,0,.2-.01,.48-.03,5.4-.33,11.03-.81,16.53-1.51,.15,0,.3-.03,.45-.03,3.55-.44,7.04-.97,10.62-1.55,.48-.06,.97-.12,1.45-.21,.06-.03,.09-.03,.15-.03,1.78-.3,3.74-.65,5.56-.99Z" fill="#fff"/><path d="M26.8,341.59c-1.76-3.33-3.44-6.71-5.03-10.13-.25-.52-.49-1.05-.73-1.58-1.5-3.27-2.93-6.58-4.28-9.94-.47-1.18-.93-2.36-1.39-3.55-.49-1.27-.97-2.55-1.43-3.84-.23-.61-.45-1.22-.66-1.84-.57-1.61-1.12-3.22-1.66-4.84-.24-.74-.48-1.49-.72-2.23-.29-.9-.57-1.79-.84-2.69-.19-.62-.37-1.25-.56-1.88-.19-.64-.38-1.27-.56-1.91,27.33-12.74,52.9-27.07,77.75-43.62,2.72-1.81,5.28-3.54,7.72-5.21,12.08-8.26,20.94-14.86,28.67-20.65,.07-.06,.14-.11,.21-.16,1.56-1.17,3.07-2.3,4.56-3.41,1.47-1.08,2.93-2.17,4.38-3.26,27.16-20,56.1-42.88,92.77-51.85,12.27-3,30.9-5.86,55-3-20.39,16.6-34.22,33.08-43,45-8.64,11.72-33.95,48.32-43.81,100.35-.2,1.01-.39,2.02-.56,3.04,0,0-.21,1.18-.4,2.32-1.01,6.05-1.69,12.22-1.69,12.22-.13,1.2-.3,2.82-.47,4.74-.19,2.12-.3,3.73-.37,4.75-.07,1-.13,2-.19,3.01-.06,1.15-.11,2.3-.16,3.46-.05,1.24-.09,2.43-.11,3.56-.02,.73-.03,1.47-.04,2.2-.02,1.07-.02,2.08-.02,3.02s.01,1.85,.02,2.67c.01,1.01,.02,1.92,.04,2.7-12.86-6.36-26.14-12.07-40.27-16.46-39.78-12.14-82.24-11.6-122.17-.99Z" fill="#fff"/><path d="M267,437c18,7.44,36.33,12.71,45.29,15.15-2.02,.73-4.05,1.44-6.1,2.12-1.09,.36-2.17,.71-3.27,1.05-1.58,.5-3.16,.98-4.75,1.44-.98,.28-1.96,.56-2.95,.83-1.06,.3-2.11,.58-3.17,.86-1.17,.3-2.34,.6-3.51,.89-1.36,.33-2.73,.65-4.1,.96-1.07,.24-2.14,.48-3.21,.7,0,0-.01,0-.02,.01-1.1,.23-2.2,.45-3.3,.66-.17,.04-.35,.07-.52,.1-1.13,.22-2.26,.43-3.39,.63-.07,.02-.13,.03-.2,.04-1,.17-1.99,.34-3,.51-1.43,.23-2.87,.45-4.32,.66-1.16,.17-2.33,.33-3.5,.47-2.86,.38-5.74,.69-8.63,.95-.56,.05-1.14,.1-1.71,.15-.87,.07-1.73,.14-2.6,.2-1.04,.08-2.07,.15-3.11,.21-.62,.03-1.24,.07-1.87,.1-1.42,.08-2.84,.14-4.26,.18-.69,.02-1.38,.04-2.07,.06-.73,.02-1.46,.03-2.19,.04-1.18,.02-2.36,.03-3.54,.03s-2.43-.01-3.64-.03c-.87-.01-1.74-.03-2.6-.06-4.07-.1-8.11-.31-12.12-.62-.82-.07-1.65-.14-2.47-.21-2.73-.24-5.45-.53-8.15-.87-1.1-.13-2.2-.28-3.29-.43-.83-.11-1.66-.23-2.49-.36-5.19-.77-10.32-1.72-15.39-2.84-.89-.19-1.77-.39-2.65-.59-.34-.08-.67-.16-1.01-.24-.88-.2-1.76-.42-2.64-.64-.66-.16-1.33-.33-1.99-.51-.09-.02-.18-.04-.28-.07-.67-.17-1.34-.35-2.01-.53-3.87-1.04-7.7-2.18-11.49-3.41l-.99-.33c-1.27-.42-2.53-.85-3.79-1.29-1.76-.61-3.51-1.25-5.25-1.91-.91-.34-1.83-.69-2.73-1.05-.69-.27-1.39-.55-2.08-.83-1.12-.45-2.25-.91-3.36-1.39-.34-.13-.68-.27-1.01-.43-1.12-.47-2.23-.95-3.34-1.45-1.32-.58-2.63-1.18-3.93-1.8-.84-.39-1.68-.79-2.52-1.2-3.15-1.51-6.25-3.1-9.31-4.76-1.07-.57-2.12-1.15-3.17-1.74-1.06-.59-2.1-1.19-3.14-1.79-3.11-1.8-6.18-3.68-9.19-5.62-.8-.51-1.58-1.03-2.37-1.55-.94-.62-1.88-1.25-2.82-1.89-.75-.52-1.5-1.04-2.25-1.56-19.63-13.74-37.05-30.44-51.61-49.44-1.37-1.79-2.72-3.6-4.04-5.44,4.02-.57,9.39-1.22,15.74-1.67,14.11-1,24.71-.42,27.52-.25,9.86,.6,17.51,1.81,21.08,2.43,11.96,2.07,20.57,4.75,29.62,7.58,5.45,1.7,14.09,4.56,24.41,8.76,1.76,.72,8.7,3.56,17.68,7.82,5.06,2.4,8.97,4.42,14.8,7.43,6.34,3.27,7.42,3.92,14.01,7.36,3.87,2.03,10.5,5.4,23.59,12.05,12.77,6.49,14.22,7.21,16.67,8.37,0,0,9.08,4.31,18,8Z" fill="#fff"/><path d="M413.4,380.47c-4.09,5-8.38,9.82-12.87,14.46-.89,.92-1.79,1.84-2.69,2.74-.16,.16-.32,.32-.48,.47-.89,.89-1.79,1.77-2.7,2.65-1.33,1.28-2.67,2.54-4.03,3.79-.87,.8-1.75,1.6-2.63,2.38-5.31,4.74-10.84,9.23-16.56,13.47-1.49,1.09-2.99,2.18-4.5,3.24-6.8,4.79-13.87,9.22-21.18,13.27-11.57-3.39-25.03-7.9-39.76-13.94-18.41-7.55-31.72-14.59-40-19-8.93-4.76-21.46-11.47-37-22-6.81-4.61-12.38-8.73-16.41-11.8-.09-1.7-.15-3.42-.21-5.21-.03-.9-.02-1.62-.03-2.7-.02-3.71-.03-5.57,0-7.07,0,0,.11-3.45,.39-9,.04-.78,.1-1.56,.16-2.34,.06-.79,.14-1.58,.21-2.36,.12-1.34,.24-2.7,.39-4.1,.12-1.15,.27-2.33,.43-3.52,.09-.78,.21-1.6,.33-2.39,.36-2.7,.82-5.49,1.33-8.34,.31-1.64,.61-3.28,.97-4.91,.34-1.67,.7-3.34,1.13-5.04,.33-1.42,.69-2.88,1.06-4.33,.06-.28,.15-.55,.21-.79,.46-1.73,.94-3.49,1.46-5.25,0-.03,.03-.09,.03-.12,1.66-5.67,3.67-11.49,6.03-17.44,15.86-39.78,40.94-65.16,56.28-78.23,1.19-1,2.91,.18,2.4,1.63-.46,1.25-.88,2.55-1.34,3.89-5.58,17.64-7.81,32.45-8.82,42.39-5.5,54.18,12.43,90.05,21.23,100.07,1.28,1.46,2.66,2.88,2.66,2.88,1.97,2.03,10.45,10.56,24.72,17.51,11.57,5.62,21.34,7.49,27.2,8.57,10.36,1.91,18.47,1.93,23.32,1.92,0,0,12.65-.02,24.56-2.19,2.03-.37,7.05-1.37,13.07-2.85,.7-.17,1.27-.32,1.64-.41Z" fill="#fff"/><path d="M413.4,380.47c-4.09,5-8.38,9.82-12.87,14.46-.89,.92-1.79,1.84-2.69,2.74-.16,.16-.32,.32-.48,.47-.89,.89-1.79,1.77-2.7,2.65-1.33,1.28-2.67,2.54-4.03,3.79-.87,.8-1.75,1.6-2.63,2.38-5.31,4.74-10.84,9.23-16.56,13.47-1.49,1.09-2.99,2.18-4.5,3.24-6.8,4.79-13.87,9.22-21.18,13.27-11.57-3.39-25.03-7.9-39.76-13.94-18.41-7.55-31.72-14.59-40-19-8.93-4.76-21.46-11.47-37-22-6.81-4.61-12.38-8.73-16.41-11.8-.09-1.7-.15-3.42-.21-5.21-.03-.9-.02-1.62-.03-2.7-.02-3.71-.03-5.57,0-7.07,0,0,.11-3.45,.39-9,.04-.78,.1-1.56,.16-2.34,.06-.79,.14-1.58,.21-2.36,.12-1.34,.24-2.7,.39-4.1,.12-1.15,.27-2.33,.43-3.52,.09-.78,.21-1.6,.33-2.39,.36-2.7,.82-5.49,1.33-8.34,.31-1.64,.61-3.28,.97-4.91,.34-1.67,.7-3.34,1.13-5.04,.33-1.42,.69-2.88,1.06-4.33,.06-.28,.15-.55,.21-.79,.46-1.73,.94-3.49,1.46-5.25,0-.03,.03-.09,.03-.12,1.66-5.67,3.67-11.49,6.03-17.44,15.86-39.78,40.94-65.16,56.28-78.23,1.19-1,2.91,.18,2.4,1.63-.46,1.25-.88,2.55-1.34,3.89-5.58,17.64-7.81,32.45-8.82,42.39-5.5,54.18,12.43,90.05,21.23,100.07,1.28,1.46,2.66,2.88,2.66,2.88,1.97,2.03,10.45,10.56,24.72,17.51,11.57,5.62,21.34,7.49,27.2,8.57,10.36,1.91,18.47,1.93,23.32,1.92,0,0,12.65-.02,24.56-2.19,2.03-.37,7.05-1.37,13.07-2.85,.7-.17,1.27-.32,1.64-.41Z" fill="#0097d9"/><path d="M312.29,452.15c-2.02,.73-4.05,1.44-6.1,2.12-1.09,.36-2.17,.71-3.27,1.05-1.58,.5-3.16,.98-4.75,1.44-.98,.28-1.96,.56-2.95,.83-1.06,.3-2.11,.58-3.17,.86-1.17,.3-2.34,.6-3.51,.89-1.36,.33-2.73,.65-4.1,.96-1.07,.24-2.14,.48-3.21,.7,0,0-.01,0-.02,.01-1.1,.23-2.2,.45-3.3,.66-.17,.04-.35,.07-.52,.1-1.13,.22-2.26,.43-3.39,.63-.07,.02-.13,.03-.2,.04-1,.17-1.99,.34-3,.51-1.43,.23-2.87,.45-4.32,.66-1.16,.17-2.33,.33-3.5,.47-2.86,.38-5.74,.69-8.63,.95-.56,.05-1.14,.1-1.71,.15-.87,.07-1.73,.14-2.6,.2-1.04,.08-2.07,.15-3.11,.21-.62,.03-1.24,.07-1.87,.1-1.42,.08-2.84,.14-4.26,.18-.69,.02-1.38,.04-2.07,.06-.73,.02-1.46,.03-2.19,.04-1.18,.02-2.36,.03-3.54,.03s-2.43-.01-3.64-.03c-.87-.01-1.74-.03-2.6-.06-4.07-.1-8.11-.31-12.12-.62-.82-.07-1.65-.14-2.47-.21-2.73-.24-5.45-.53-8.15-.87-1.1-.13-2.2-.28-3.29-.43-.83-.11-1.66-.23-2.49-.36-5.19-.77-10.32-1.72-15.39-2.84-.89-.19-1.77-.39-2.65-.59-.34-.08-.67-.16-1.01-.24-.88-.2-1.76-.42-2.64-.64-.66-.16-1.33-.33-1.99-.51-.09-.02-.18-.04-.28-.07-.67-.17-1.34-.35-2.01-.53-3.87-1.04-7.7-2.18-11.49-3.41l-.99-.33c-1.27-.42-2.53-.85-3.79-1.29-1.76-.61-3.51-1.25-5.25-1.91-.91-.34-1.83-.69-2.73-1.05-.69-.27-1.39-.55-2.08-.83-1.12-.45-2.25-.91-3.36-1.39-.34-.13-.68-.27-1.01-.43-1.12-.47-2.23-.95-3.34-1.45-1.32-.58-2.63-1.18-3.93-1.8-.84-.39-1.68-.79-2.52-1.2-3.15-1.51-6.25-3.1-9.31-4.76-1.07-.57-2.12-1.15-3.17-1.74-1.06-.59-2.1-1.19-3.14-1.79-3.11-1.8-6.18-3.68-9.19-5.62-.8-.51-1.58-1.03-2.37-1.55-.94-.62-1.88-1.25-2.82-1.89-.75-.52-1.5-1.04-2.25-1.56-19.63-13.74-37.05-30.44-51.61-49.44-1.37-1.79-2.72-3.6-4.04-5.44,4.02-.57,9.39-1.22,15.74-1.67,14.11-1,24.71-.42,27.52-.25,9.86,.6,17.51,1.81,21.08,2.43,11.96,2.07,20.57,4.75,29.62,7.58,5.45,1.7,14.09,4.56,24.41,8.76,1.76,.72,8.7,3.56,17.68,7.82,5.06,2.4,8.97,4.42,14.8,7.43,6.34,3.27,7.42,3.92,14.01,7.36,3.87,2.03,10.5,5.4,23.59,12.05,12.77,6.49,14.22,7.21,16.67,8.37,0,0,9.08,4.31,18,8,18,7.44,36.33,12.71,45.29,15.15Z" fill="#00a4e0"/><path d="M280,166c-20.39,16.6-34.22,33.08-43,45-8.64,11.72-33.95,48.32-43.81,100.35-.2,1.01-.39,2.02-.56,3.04,0,0-.21,1.18-.4,2.32-1.01,6.05-1.69,12.22-1.69,12.22-.13,1.2-.3,2.82-.47,4.74-.19,2.12-.3,3.73-.37,4.75-.07,1-.13,2-.19,3.01-.06,1.15-.11,2.3-.16,3.46-.05,1.24-.09,2.43-.11,3.56-.02,.73-.03,1.47-.04,2.2-.02,1.07-.02,2.08-.02,3.02s.01,1.85,.02,2.67c.01,1.01,.02,1.92,.04,2.7-12.86-6.36-26.14-12.07-40.27-16.46-39.78-12.14-82.24-11.6-122.17-.99-1.76-3.33-3.44-6.71-5.03-10.13-.25-.52-.49-1.05-.73-1.58-1.5-3.27-2.93-6.58-4.28-9.94-.47-1.18-.93-2.36-1.39-3.55-.49-1.27-.97-2.55-1.43-3.84-.23-.61-.45-1.22-.66-1.84-.58-1.61-1.13-3.22-1.66-4.84-.24-.74-.48-1.49-.72-2.23-.29-.9-.57-1.79-.84-2.69-.19-.62-.37-1.25-.56-1.88-.19-.64-.38-1.27-.56-1.91,27.33-12.74,52.9-27.07,77.75-43.62,2.72-1.81,5.28-3.54,7.72-5.21,12.08-8.26,20.94-14.86,28.67-20.65,.07-.06,.14-.11,.21-.16,1.56-1.17,3.07-2.3,4.56-3.41,1.47-1.08,2.93-2.17,4.38-3.26,27.16-20,56.1-42.88,92.77-51.85,12.27-3,30.9-5.86,55-3Z" fill="#00a4e0"/></g></g></g></svg>