<?xml version="1.0" encoding="UTF-8"?><svg id="Layer_2" xmlns="http://www.w3.org/2000/svg" viewBox="0 0 147.29 143.74"><g id="Layer_2-2"><g><path d="m111.89,45.92c-1.58,0-2.66-.48-3.9-1.03-.25-.11-.51-.23-.81-.36-2.62-1.12-6.47-2.42-10.19-3.68-2.76-.93-5.37-1.82-7.53-2.63-.37-.13-1.42-.52-2-1.68-1.75-3.5,3.9-7.88,8.95-10.93,1.4-.85,3.59-2,6.5-2.29.7-.07,1.4-.07,2.16,0,1.94.16,3.81.79,5.74,1.93.15.09,15.16,9.02,12.02,15.24-.48.95-1.2,1.34-2.92,2.28-5.33,2.88-6.81,3.14-7.87,3.16-.05,0-.09,0-.14,0Zm-2.75-5.98c.32.14.61.27.88.38,1.16.52,1.41.61,1.92.6.12-.01,1.18-.18,5.57-2.56.21-.11.38-.21.53-.29-1.12-2.06-6.23-6.42-9.79-8.52-1.26-.74-2.45-1.15-3.61-1.25-.45-.04-.86-.04-1.26,0-1.87.18-3.33.94-4.39,1.59-2.35,1.42-4.57,3.14-5.86,4.36,1.66.59,3.52,1.22,5.45,1.87,3.81,1.29,7.75,2.62,10.55,3.82h0Z" fill="#333"/><path d="m95.97,140.81l-3.78,2.62c-.77.54-1.83.34-2.37-.43l-11.07-15.97c-10.61-5.19-21.21-10.36-31.83-15.54-.91-.44-1.24-1.58-.7-2.42.57-.89,1.12-1.87,1.67-2.93.42-.8,1.38-1.14,2.2-.77,9.21,4.13,18.42,8.27,27.63,12.4l.94-29.18c.03-.94.82-1.69,1.77-1.65,1.06.05,2.58.06,4.42-.07,1-.08,1.85.74,1.82,1.75l-1.1,34.2,10.83,15.62c.54.77.34,1.83-.43,2.37Z" fill="#333"/><path d="m22.7,115.12c-3.92,0-8.79-.53-13.06-3.83h0c-5.02-3.87-6.61-9.48-7.5-14.47-6.54-36.67,3.96-56.76,4.42-57.6C15.31,22.92,29.86,11.18,49.78,4.34c14.87-5.11,30.67-5.71,46.98-1.8,24.1,5.78,44.22,23.82,49.75,37.92,2.27,5.78-.54,12.43-6.26,14.82-5.61,2.35-10.99,5.1-15.98,8.2-.97.67-2,1.38-3.08,2.12-12.39,8.59-29.33,20.33-41.51,19.35-2.56,0-4.46-.29-5.99-.53-2.05-.32-3.41-.53-5.91-.08-2.73.49-6.88,1.82-11.2,5.42l-.1.08c-3.48,2.71-5.74,7.18-7.73,11.12-1.74,3.44-3.39,6.69-5.8,8.72-5.89,4.95-13.07,5.22-17.37,5.39-.88.03-1.85.07-2.88.07Zm-8.18-10.17c3.11,2.39,7.35,2.23,10.76,2.1,3.69-.14,8.73-.33,12.53-3.52,1.16-.97,2.5-3.63,3.81-6.21,2.25-4.44,5.04-9.96,9.9-13.77,5.65-4.68,11.2-6.44,14.86-7.1,3.81-.68,6.21-.31,8.54.05,1.49.23,2.89.46,4.92.44h.2s.19.02.19.02c9.29.87,26.27-10.91,36.42-17.94,1.11-.77,2.18-1.51,3.18-2.2l.15-.1c5.38-3.34,11.16-6.31,17.2-8.83,1.74-.73,2.59-2.75,1.89-4.52-4.67-11.92-22.89-27.95-44.17-33.06-14.8-3.55-29.1-3.02-42.51,1.59-17.95,6.16-31,16.63-38.78,31.11-.09.17-9.59,18.71-3.59,52.4.65,3.65,1.65,7.33,4.5,9.53h0Z" fill="#333"/></g></g></svg>