<?xml version="1.0" encoding="UTF-8"?><svg id="Layer_2" xmlns="http://www.w3.org/2000/svg" viewBox="0 0 206 195"><g id="Layer_1-2"><g><circle cx="111" cy="100" r="95" fill="#009246"/><circle cx="95" cy="95" r="95" fill="#32b545"/><path d="M73.9,143.15l-28.28-23.98c-6.01-5.1-7.44-15.08-3.19-22.29h0c4.25-7.21,12.58-8.92,18.59-3.82l28.28,23.98c6.01,5.1,7.44,15.08,3.19,22.29h0c-4.25,7.21-12.58,8.92-18.59,3.82Z" fill="#f2f2f2"/><path d="M69.97,122.79L113.59,48.85c3.7-6.28,10.95-7.77,16.19-3.33l2.81,2.39c5.24,4.44,6.48,13.13,2.78,19.41l-41.63,70.57c-4.8,8.14-14.2,10.07-20.99,4.32h0c-5.24-4.44-6.48-13.13-2.78-19.41Z" fill="#f2f2f2"/></g></g></svg>