<?xml version="1.0" encoding="UTF-8"?><svg id="Layer_2" xmlns="http://www.w3.org/2000/svg" viewBox="0 0 105.5 106.11"><g id="Layer_3"><path d="m81.04,65.47c0,.88-.01,1.76-.12,2.63-.02.03-.02.06-.01.09-1.05,6.24-7.8,9.58-13.7,9.18-4.12-.32-7.95-2.5-11.76-3.94h0c-1.22-.67-2.53-1.18-3.72-1.91h0c-1.09-.8-2.31-1.42-3.41-2.2-1.09-.77-2.08-1.87-3.23-2.53-3.45-3.01-6.09-6.48-8.91-10.07-3.35-4.8-6.69-9.93-7.69-15.79h0c.03-1.04-.07-2.09.08-3.11.28-3.77,2.17-7.41,4.94-9.98.85-.66,1.71-1.26,2.81-1.4,1.44-.03,2.89.09,4.33.2.02.02.06.03.09.02l.91.61c.09.13.19.26.28.4,1.49,3.8,2.88,7.64,4.35,11.45.24.64.3,1.26.08,1.91-.81,1.59-2.1,2.92-3.3,4.22-.49.48-1.02.92-1.22,1.61-.48,1.11,3.36,6.06,4.15,7.25,1.36,1.65,2.8,3.24,4.42,4.64,1.7,1.88,4.21,3.12,6.35,4.41,1.23.59,2.39,1.36,3.71,1.74.28.13.56.13.83-.01,1.05-.27,1.47-1.32,2.19-2.02.82-.89,1.61-1.8,2.41-2.72.76-.82,1.39-2.12,2.72-1.8,3.24,1.32,6.32,3.02,9.38,4.71.01.02.03.04.06.03.58.33,1.16.66,1.75.98.3.21.6.42.9.62.03.03.06.07.08.1.08.22.17.45.25.67Z" fill="#0a455e"/><path d="m53.87,0C25.35,0,2.24,23.12,2.24,51.63c0,9.84,2.75,19.03,7.53,26.86-3.26,9.2-6.51,18.41-9.77,27.62,9.78-3.01,19.57-6.02,29.35-9.03,7.29,3.94,15.64,6.18,24.52,6.18,28.52,0,51.63-23.12,51.63-51.63S82.38,0,53.87,0Zm0,94.52c-8.68,0-16.76-2.58-23.51-7.01-3.39,1.09-6.77,2.18-10.16,3.26-1.99.64-3.98,1.28-5.97,1.92.61-1.98,1.21-3.95,1.81-5.92,1.02-3.34,2.04-6.67,3.07-10.01-5.11-7.06-8.13-15.74-8.13-25.13,0-23.69,19.2-42.89,42.89-42.89s42.89,19.2,42.89,42.89-19.2,42.89-42.89,42.89Z" fill="#0a455e"/></g></svg>